<svg xmlns="http://www.w3.org/2000/svg" xmlns:xlink="http://www.w3.org/1999/xlink" width="500" zoomAndPan="magnify" viewBox="0 0 375 374.999991" height="500" preserveAspectRatio="xMidYMid meet" version="1.0"><defs><clipPath id="77efb9bc3f"><path d="M 12 95 L 375 95 L 375 287 L 12 287 Z M 12 95 " clip-rule="nonzero"/></clipPath><clipPath id="2b6b43314c"><path d="M -15.308594 152.277344 L 256.828125 -6.363281 L 390.539062 223.011719 L 118.402344 381.652344 Z M -15.308594 152.277344 " clip-rule="nonzero"/></clipPath><clipPath id="4bf19dbd72"><path d="M -15.308594 152.277344 L 256.828125 -6.363281 L 390.539062 223.011719 L 118.402344 381.652344 Z M -15.308594 152.277344 " clip-rule="nonzero"/></clipPath><clipPath id="9bfe8616cd"><path d="M 20 103 L 334 103 L 334 267 L 20 267 Z M 20 103 " clip-rule="nonzero"/></clipPath><clipPath id="f0cb95e55d"><path d="M -15.308594 152.277344 L 256.828125 -6.363281 L 390.539062 223.011719 L 118.402344 381.652344 Z M -15.308594 152.277344 " clip-rule="nonzero"/></clipPath><clipPath id="999077a6fb"><path d="M -15.308594 152.277344 L 256.828125 -6.363281 L 390.539062 223.011719 L 118.402344 381.652344 Z M -15.308594 152.277344 " clip-rule="nonzero"/></clipPath><clipPath id="4362b846b5"><path d="M 19 100 L 367 100 L 367 282 L 19 282 Z M 19 100 " clip-rule="nonzero"/></clipPath><clipPath id="61ee2518a9"><path d="M -15.308594 152.277344 L 256.828125 -6.363281 L 390.539062 223.011719 L 118.402344 381.652344 Z M -15.308594 152.277344 " clip-rule="nonzero"/></clipPath><clipPath id="6f2503c73e"><path d="M -15.308594 152.277344 L 256.828125 -6.363281 L 390.539062 223.011719 L 118.402344 381.652344 Z M -15.308594 152.277344 " clip-rule="nonzero"/></clipPath><clipPath id="29ee5df55a"><path d="M 116 128 L 368 128 L 368 278 L 116 278 Z M 116 128 " clip-rule="nonzero"/></clipPath><clipPath id="39073f48a5"><path d="M -15.308594 152.277344 L 256.828125 -6.363281 L 390.539062 223.011719 L 118.402344 381.652344 Z M -15.308594 152.277344 " clip-rule="nonzero"/></clipPath><clipPath id="398225a278"><path d="M -15.308594 152.277344 L 256.828125 -6.363281 L 390.539062 223.011719 L 118.402344 381.652344 Z M -15.308594 152.277344 " clip-rule="nonzero"/></clipPath></defs><g clip-path="url(#77efb9bc3f)"><g clip-path="url(#2b6b43314c)"><g clip-path="url(#4bf19dbd72)"><path fill="#000000" d="M 373.777344 197.394531 C 376.277344 203.929688 374.984375 210.0625 369.730469 216.757812 C 369.402344 217.3125 369.117188 217.695312 368.769531 217.972656 C 367.246094 219.222656 363.144531 223.285156 358.019531 228.453125 C 347.515625 238.863281 333.1875 253.175781 326.691406 257.613281 C 324.726562 258.980469 322.707031 260.375 320.609375 261.886719 C 314.796875 266.003906 308.710938 270.277344 302.367188 273.976562 C 289.457031 281.5 278.488281 284.625 268 283.835938 C 258.242188 283.054688 248.03125 281.742188 239.851562 277.0625 C 231.738281 272.492188 226.203125 264.742188 220.828125 257.269531 C 220.363281 256.59375 219.898438 255.921875 219.378906 255.277344 C 210.234375 242.585938 201.804688 230.496094 193.765625 218.324219 C 190.785156 226.675781 186.453125 234.578125 182.308594 242.296875 L 181.855469 243.144531 C 180.375 245.96875 178.789062 248.855469 177.34375 251.734375 C 176.722656 253.039062 176.050781 254.375 175.375 255.714844 C 173.960938 258.644531 172.367188 261.898438 170.542969 265 C 169.238281 267.503906 167.601562 270.054688 165.5625 272.914062 C 165.265625 273.523438 164.914062 274.167969 164.550781 274.667969 C 163.664062 276.636719 162.414062 278.605469 160.972656 280.242188 C 159.472656 281.914062 157.796875 283.402344 156.0625 284.414062 C 155.519531 284.730469 155.03125 285.015625 154.566406 285.210938 C 149.941406 287.253906 145.070312 286.75 141.375 286.144531 C 138.464844 286.386719 135.074219 286.183594 131.230469 285.445312 C 121.28125 284.339844 111.191406 281.863281 101.414062 279.425781 L 96.839844 278.3125 C 85.632812 275.542969 74.03125 272.714844 63.089844 268.410156 C 56.449219 267.488281 49.777344 262.65625 46.148438 256.050781 L 46.117188 255.996094 C 41.597656 249.617188 37.722656 242.722656 33.941406 235.988281 C 32.699219 233.730469 31.40625 231.507812 30.164062 229.253906 C 27.632812 224.914062 24.914062 220.25 21.59375 214.554688 C 20.867188 213.304688 20.023438 211.980469 19.304688 210.875 L 19.273438 210.820312 C 17.644531 208.28125 15.988281 205.6875 14.796875 202.894531 C 13.0625 200.414062 12.105469 196.90625 12.335938 193.933594 C 12.476562 192.183594 13.234375 190.867188 13.996094 189.550781 C 14.480469 188.761719 14.964844 187.972656 15.394531 187.210938 L 15.777344 186.625 C 15.976562 186.21875 16.207031 185.867188 16.4375 185.511719 C 16.484375 185.339844 16.527344 185.167969 16.542969 184.945312 C 16.730469 184.398438 17.070312 183.980469 17.503906 183.726562 L 17.613281 183.664062 L 17.820312 183.398438 C 17.953125 183.25 18.027344 183.132812 18.105469 183.015625 C 22.5625 173.585938 28.226562 164.472656 33.65625 155.710938 L 34.722656 153.925781 C 35.589844 152.546875 36.402344 151.199219 37.21875 149.855469 C 39.867188 145.546875 42.390625 141.027344 44.867188 136.675781 L 44.890625 136.589844 C 49.4375 128.558594 54.140625 120.296875 59.589844 112.6875 C 60.480469 109.480469 62.375 106.992188 65.25 105.316406 C 72.136719 101.300781 82.8125 102.785156 88.632812 104.042969 C 98.105469 104.839844 107.492188 106.851562 116.511719 108.863281 L 116.683594 108.90625 C 118.421875 109.273438 120.109375 109.671875 121.847656 110.039062 C 130.921875 112.015625 140.085938 113.648438 149.507812 115.351562 C 150.335938 115.523438 151.164062 115.695312 152.019531 115.921875 L 152.160156 115.914062 C 152.558594 115.972656 152.925781 115.976562 153.324219 116.035156 L 153.6875 116.039062 L 154 116.078125 C 154.367188 116.082031 154.765625 116.140625 155.128906 116.144531 L 155.269531 116.136719 C 157.710938 115.585938 161.195312 116.824219 163.003906 117.804688 C 164.808594 118.785156 166.074219 120.085938 166.828125 121.75 C 167.832031 122.476562 168.558594 123.722656 169.066406 124.589844 L 169.097656 124.644531 C 169.253906 124.914062 169.347656 125.078125 169.445312 125.242188 L 169.75 125.644531 C 170.964844 127.480469 172.363281 129.5 173.433594 131.710938 C 176.171875 135.78125 178.484375 140.246094 180.785156 144.574219 L 180.945312 144.84375 C 182.480469 147.726562 183.824219 150.285156 185.25 152.726562 C 185.628906 153.378906 185.976562 153.972656 186.386719 154.679688 C 190.84375 150.480469 195.476562 146.835938 199.195312 143.867188 L 199.304688 143.804688 C 200.1875 143.074219 201.046875 142.425781 201.796875 141.84375 C 211.585938 133.957031 223.203125 124.714844 234.933594 115.914062 C 241.457031 111.023438 247.257812 106.765625 252.722656 102.929688 C 253.070312 102.652344 253.453125 102.429688 253.800781 102.15625 C 255.277344 101.074219 256.894531 99.988281 258.523438 99.039062 C 261.832031 97.109375 264.707031 96.304688 267.558594 96.460938 C 267.785156 96.472656 268.007812 96.488281 268.210938 96.585938 C 276.511719 93.496094 285.199219 96.929688 292.21875 99.746094 C 297.039062 101.65625 301.972656 104.011719 306.957031 106.703125 C 307.683594 107.078125 308.441406 107.507812 309.226562 107.851562 C 312.59375 109.519531 316.03125 111.296875 318.296875 114.191406 C 324.417969 118.832031 328.558594 125.433594 332.535156 131.761719 C 333.285156 132.921875 334.003906 134.027344 334.753906 135.191406 C 341.125 144.996094 347.964844 155.613281 354.789062 166.316406 C 356.601562 169.179688 358.613281 172.003906 360.695312 175.078125 C 365.625 182.164062 370.828125 189.59375 373.777344 197.394531 Z M 373.777344 197.394531 " fill-opacity="1" fill-rule="nonzero"/></g></g></g><g clip-path="url(#9bfe8616cd)"><g clip-path="url(#f0cb95e55d)"><g clip-path="url(#999077a6fb)"><path fill="#ffffff" d="M 151.191406 130.578125 C 151.886719 130.027344 152.3125 129.632812 152.765625 129.292969 C 152.894531 129.511719 153.160156 129.71875 153.339844 129.90625 C 153.703125 129.402344 153.980469 128.878906 154.339844 128.378906 L 154.394531 128.347656 L 154.417969 128.261719 C 154.5625 127.886719 154.730469 127.425781 154.898438 126.964844 C 154.574219 126.785156 154.253906 126.609375 153.816406 126.359375 C 154.414062 126.007812 154.839844 125.617188 155.21875 125.394531 C 155.242188 125.308594 155.175781 125.199219 155.199219 125.113281 C 155.355469 123.136719 153.222656 120.601562 134.699219 118.246094 C 133.226562 118.085938 131.945312 117.886719 131.207031 117.738281 C 125.167969 116.605469 119.003906 115.257812 113.582031 114.058594 L 111.984375 113.683594 C 111.382812 113.523438 110.757812 113.453125 110.15625 113.292969 C 110.15625 113.292969 110.15625 113.292969 110.070312 113.269531 C 99.117188 110.9375 87.46875 109.152344 74.617188 107.921875 L 74.53125 107.902344 L 74.476562 107.933594 C 71.941406 108.320312 69.820312 109.046875 67.921875 110.152344 C 66.132812 111.199219 64.617188 112.589844 63.347656 114.273438 L 63.238281 114.335938 C 59.632812 121.238281 55.421875 127.976562 51.335938 134.429688 L 51.203125 134.578125 C 47.886719 139.855469 44.105469 145.839844 40.832031 151.816406 C 38.816406 155.464844 36.863281 159.21875 34.855469 163.003906 C 30.640625 170.984375 25.929688 179.980469 20.625 188.085938 L 20.394531 188.4375 L 20.585938 188.761719 C 21.089844 189.632812 21.910156 190.535156 22.855469 191.289062 L 23.039062 191.476562 L 23.265625 191.488281 C 26.496094 191.421875 29.730469 191.863281 32.570312 192.242188 L 33.019531 192.269531 C 34.042969 192.402344 35.007812 192.5625 36 192.640625 C 41.664062 193.261719 47.554688 194.261719 54.027344 195.648438 L 54.082031 195.613281 L 54.136719 195.582031 C 65.839844 196.464844 77.492188 199.121094 87.742188 203.242188 L 87.914062 203.289062 C 90.019531 203.660156 92.191406 204.140625 94.710938 204.851562 L 94.796875 204.871094 C 94.96875 204.917969 95.140625 204.964844 95.257812 205.039062 L 95.632812 205.183594 L 96.0625 205.296875 C 96.546875 205.378906 97.0625 205.515625 97.597656 205.566406 C 100.703125 206.152344 104.328125 206.511719 107.390625 205.160156 C 107.390625 205.160156 107.554688 205.066406 107.554688 205.066406 L 107.609375 205.035156 C 109.070312 203.675781 110.277344 201.882812 111.460938 200.171875 L 112.074219 199.234375 C 112.460938 198.644531 112.875 198.113281 113.292969 197.582031 L 113.34375 197.546875 L 113.367188 197.460938 C 116.410156 190.09375 120.601562 183.070312 124.867188 176.296875 C 124.484375 176.015625 124.003906 175.566406 123.171875 174.886719 C 124.40625 174.386719 125.1875 173.859375 125.996094 173.75 C 126.136719 173.742188 126.253906 173.816406 126.316406 173.925781 C 127.109375 172.664062 127.878906 171.492188 128.667969 170.230469 L 129.359375 169.171875 C 130.820312 166.941406 132.328125 164.539062 133.699219 162.28125 C 137.601562 156.011719 141.648438 149.363281 146.015625 142.023438 C 146.851562 140.589844 147.691406 139.160156 148.515625 137.585938 L 148.792969 137.0625 C 149.773438 135.253906 150.832031 133.328125 151.976562 131.425781 C 152 131.339844 151.667969 131.023438 151.191406 130.578125 Z M 63.015625 128.785156 C 63.214844 128.378906 63.445312 128.027344 63.695312 127.585938 C 62.09375 124.960938 62.488281 121.898438 63.984375 119.355469 C 63.574219 118.648438 63.109375 117.976562 62.859375 117.175781 C 62.785156 116.925781 63.601562 116.453125 64.027344 116.058594 C 64.449219 116.539062 64.84375 116.964844 65.332031 117.550781 C 66.433594 116.328125 67.859375 115.277344 69.363281 114.621094 C 70.742188 113.742188 72.394531 113.214844 74.078125 113.105469 C 78.632812 112.195312 83.417969 113.546875 84.664062 118.054688 C 85.703125 121.953125 83.4375 125.671875 80.09375 127.914062 C 76.242188 131.902344 69.265625 133.277344 65.066406 129.1875 C 64.738281 129.378906 64.414062 129.566406 64.058594 129.703125 C 63.871094 129.882812 62.9375 128.902344 63.015625 128.785156 Z M 92.472656 157.757812 C 92.523438 158.089844 91.925781 158.4375 91.589844 158.855469 C 91.195312 158.429688 90.609375 158.046875 90.410156 157.578125 C 90.335938 157.332031 90.839844 156.820312 91.324219 156.03125 C 91.851562 156.8125 92.382812 157.226562 92.472656 157.757812 Z M 83.214844 167.804688 C 82.511719 168.214844 81.753906 168.65625 81.015625 169.015625 C 80.851562 169.109375 80.578125 168.761719 79.96875 168.460938 C 80.996094 167.863281 81.757812 167.417969 82.492188 167.0625 C 82.601562 167 82.972656 167.511719 83.214844 167.804688 Z M 51.121094 182.808594 C 46.898438 187.15625 38.453125 190.121094 33.453125 185.40625 C 31.835938 183.878906 31.066406 181.5625 31.171875 179.25 C 31.003906 177.964844 31.054688 176.554688 31.492188 175.066406 C 33.421875 168.273438 42.953125 164.679688 49.09375 167.855469 C 54.890625 170.945312 55.550781 178.191406 51.121094 182.808594 Z M 56.746094 179.238281 C 56.351562 178.8125 56.570312 177.816406 56.523438 177.113281 C 57.144531 178.425781 57.730469 179.683594 57.769531 179.875 C 58.347656 180.121094 57.320312 179.847656 56.746094 179.238281 Z M 59.503906 161.28125 C 52.785156 163.597656 44.714844 159.726562 45.558594 151.824219 C 45.804688 149.5 46.984375 147.285156 48.664062 145.433594 C 48.71875 145.402344 48.71875 145.402344 48.742188 145.316406 C 52.324219 141.484375 58.058594 139.230469 62.65625 140.765625 C 67.71875 142.464844 70.089844 148.277344 67.90625 152.386719 C 67.769531 152.898438 67.546875 153.394531 67.242188 153.863281 C 67.21875 153.949219 67.109375 154.011719 67.085938 154.097656 C 65.675781 157.535156 62.941406 160.074219 59.503906 161.28125 Z M 113.085938 183.890625 C 115.074219 190.292969 109.785156 195.554688 104.710938 198.441406 C 99.472656 201.421875 93.191406 200.867188 90.195312 194.984375 C 87.359375 189.371094 93.234375 184.492188 97.394531 181.777344 C 97.828125 181.523438 98.300781 181.464844 98.699219 181.523438 C 99.15625 181.183594 99.699219 180.867188 100.132812 180.617188 C 104.902344 178.199219 111.164062 177.601562 113.085938 183.890625 Z M 104.261719 169.996094 C 104.097656 170.09375 103.523438 169.480469 102.757812 168.914062 C 103.679688 168.375 104.242188 167.972656 104.828125 167.851562 C 105.074219 167.777344 105.453125 168.429688 105.785156 168.746094 C 105.304688 169.171875 104.835938 169.734375 104.261719 169.996094 Z M 88.972656 134.796875 C 90.453125 135.464844 91.84375 136.105469 93.320312 136.769531 C 92.84375 137.195312 92.277344 137.597656 91.449219 138.296875 C 90.386719 137.097656 89.453125 136.117188 88.519531 135.136719 C 88.734375 135.011719 88.941406 134.742188 88.972656 134.796875 Z M 100.71875 155.566406 C 100.625 155.402344 101.464844 154.476562 101.667969 154.578125 C 102.675781 154.933594 103.636719 155.464844 104.621094 155.90625 C 103.863281 156.351562 103.191406 156.816406 102.050781 157.480469 C 101.554688 156.75 100.957031 156.226562 100.71875 155.566406 Z M 121.933594 177.5 C 121.480469 177.472656 121.003906 177.023438 120.070312 176.550781 C 121.023438 176.066406 121.503906 175.640625 121.957031 175.667969 C 122.355469 175.726562 122.703125 176.324219 123.0625 176.695312 C 122.714844 176.972656 122.355469 177.472656 121.933594 177.5 Z M 126.839844 160.613281 C 124.15625 166.101562 117.46875 170.21875 111.273438 168.816406 C 103.996094 167.171875 104.304688 158.851562 109.191406 154.769531 C 111.464844 151.191406 115.6875 148.585938 119.816406 148.066406 C 127.324219 147.105469 129.703125 154.800781 126.839844 160.613281 Z M 139.378906 137.246094 C 139.140625 137.457031 138.902344 137.667969 138.574219 137.859375 C 136.234375 140.824219 132.695312 143.105469 128.894531 143.066406 C 124.308594 143.050781 120.617188 139.460938 119.992188 135.027344 C 119.757812 133.128906 120.125 131.390625 121.007812 129.785156 C 120.769531 130 120.496094 130.15625 120.226562 130.316406 C 120.0625 130.410156 119.605469 129.875 118.839844 129.308594 C 119.792969 128.824219 120.355469 128.421875 120.941406 128.300781 C 121.078125 128.292969 121.324219 128.585938 121.566406 128.878906 C 123.9375 125.464844 128.574219 123.195312 132.871094 123.089844 C 133.488281 123.019531 134.101562 122.953125 134.660156 122.917969 C 136.210938 122.957031 137.550781 123.632812 138.59375 124.550781 C 138.945312 124.78125 139.265625 124.957031 139.5625 125.21875 C 143.226562 128.386719 142.640625 134.109375 139.378906 137.246094 Z M 323.507812 174.738281 C 319.570312 169.476562 314.652344 163.039062 312.535156 159.40625 L 312.472656 159.296875 C 302.023438 145.988281 290.914062 131.167969 289.5 128.867188 C 287.695312 126.144531 286.054688 123.828125 284.425781 121.65625 C 283.40625 120.285156 282.421875 118.96875 281.351562 117.632812 C 280.007812 115.945312 278.683594 114.175781 277.445312 112.425781 C 277.136719 112.023438 276.800781 111.566406 276.398438 111 C 274.882812 108.902344 272.652344 105.699219 270.25 104.195312 C 267.960938 102.765625 265.304688 103.441406 264.078125 104.082031 L 264.027344 104.113281 L 263.972656 104.148438 C 261.464844 105.828125 258.867188 107.484375 256.414062 109.132812 C 251.769531 112.132812 246.988281 115.28125 242.449219 118.582031 C 235.382812 123.792969 228.28125 129.3125 221.472656 134.589844 C 219.515625 136.09375 217.667969 137.535156 215.765625 139.007812 L 214.210938 140.203125 C 205.871094 146.589844 197.238281 153.222656 189.433594 160.53125 C 189.328125 160.59375 189.25 160.714844 189.117188 160.863281 C 188.5625 161.402344 188.03125 161.859375 187.472656 162.402344 C 187.046875 162.796875 186.679688 163.15625 186.285156 163.605469 C 186.046875 163.816406 185.890625 164.050781 185.652344 164.265625 C 178.296875 171.964844 173.320312 180.753906 180.75 190.011719 C 181.027344 190.359375 181.160156 190.71875 181.15625 191.082031 L 181.144531 191.308594 L 181.238281 191.472656 C 181.609375 191.984375 182.03125 192.460938 182.402344 192.972656 C 184.882812 196.105469 187.363281 199.238281 189.8125 202.316406 C 190.882812 203.652344 191.929688 205.078125 193 206.414062 C 193.214844 206.65625 193.371094 206.925781 193.617188 207.21875 C 194.015625 207.785156 194.472656 208.320312 194.875 208.882812 C 195.394531 209.527344 195.859375 210.199219 196.378906 210.839844 C 204.640625 221.648438 212.378906 232.179688 219.761719 242.847656 C 221.09375 244.757812 222.4375 246.8125 223.746094 248.808594 C 227.949219 255.152344 232.25 261.65625 237.699219 266.761719 L 237.964844 266.972656 L 238.324219 266.835938 C 245.78125 264.667969 253.121094 262.425781 260.117188 258.347656 C 260.441406 258.15625 260.820312 257.933594 261.148438 257.746094 C 267.832031 253.628906 304.765625 226.359375 322.953125 207.691406 C 322.183594 207.121094 321.597656 206.738281 321.03125 206.269531 C 322.332031 205.507812 323.5 204.394531 324.859375 204.109375 C 325.195312 204.058594 325.625 204.171875 326.007812 204.457031 C 330.417969 199.558594 333.140625 195.503906 333.121094 192.972656 L 333.140625 192.886719 L 333.109375 192.832031 C 332.265625 189.761719 331.179688 186.398438 329.058594 182.765625 C 328.550781 181.390625 326.242188 178.304688 323.507812 174.738281 Z M 256.183594 111.230469 C 256.542969 110.730469 257.109375 110.328125 257.589844 109.902344 C 257.894531 110.304688 258.515625 110.742188 258.394531 111.03125 C 258.257812 111.546875 257.746094 111.917969 257.175781 112.6875 C 256.679688 111.957031 256.105469 111.347656 256.183594 111.230469 Z M 218.445312 165.421875 C 219.160156 166.023438 219.640625 166.46875 220.117188 166.917969 C 219.070312 167.238281 218.03125 167.699219 217.003906 167.933594 C 216.808594 167.972656 216.460938 167.378906 216.164062 167.117188 C 216.859375 166.5625 217.585938 166.066406 218.445312 165.421875 Z M 208.78125 196.707031 C 206.667969 196.703125 204.738281 196.011719 203.03125 194.828125 C 202.328125 194.367188 201.699219 193.789062 201.125 193.175781 C 200.519531 192.511719 199.9375 191.761719 199.464844 190.949219 C 199.117188 190.351562 198.789062 189.667969 198.550781 189.007812 C 198.382812 188.597656 198.269531 188.15625 198.160156 187.710938 C 197.996094 186.933594 197.886719 186.125 197.886719 185.253906 C 197.816406 185.003906 197.828125 184.78125 197.789062 184.585938 C 197.722656 183.96875 197.652344 183.355469 197.671875 182.765625 C 197.648438 181.976562 197.765625 181.183594 197.882812 180.386719 C 198.078125 179.472656 198.382812 178.5 198.890625 177.621094 C 199.339844 176.777344 199.855469 176.039062 200.597656 175.316406 C 204.558594 171.265625 210.648438 171.492188 215.035156 174.53125 C 218.230469 175.648438 220.929688 178.652344 221.8125 181.917969 C 223.46875 188 220.230469 194.539062 214.105469 196.367188 C 212.363281 196.871094 210.683594 196.980469 209.09375 196.746094 C 209.007812 196.722656 208.921875 196.699219 208.78125 196.707031 Z M 261.679688 233.601562 C 261.679688 234.472656 261.59375 235.320312 261.453125 236.203125 C 261.394531 238.34375 260.859375 240.546875 259.769531 242.417969 C 256.386719 248.457031 248.871094 250.148438 242.878906 247.101562 C 239.125 245.148438 236.070312 241.40625 235.101562 237.25 C 233.878906 231.785156 236.203125 226.796875 240.636719 223.558594 C 244.265625 220.933594 249.367188 220.210938 253.523438 221.855469 C 258.378906 223.824219 261.539062 228.375 261.679688 233.601562 Z M 228.597656 170.621094 C 228.234375 171.488281 227.78125 172.332031 227.328125 173.179688 C 226.902344 172.699219 226.566406 172.242188 225.863281 171.414062 C 226.691406 170.714844 227.28125 170.226562 227.953125 169.761719 C 227.953125 169.761719 228.699219 170.417969 228.597656 170.621094 Z M 265.464844 186.117188 C 267.121094 192.203125 263.886719 198.742188 257.757812 200.570312 C 256.015625 201.074219 254.335938 201.183594 252.746094 200.945312 C 252.660156 200.925781 252.550781 200.988281 252.464844 200.964844 C 247.339844 200.898438 243.054688 196.785156 241.929688 191.992188 C 241.765625 191.214844 241.660156 190.40625 241.660156 189.53125 C 240.980469 186.003906 241.621094 182.359375 244.28125 179.574219 C 248.242188 175.519531 254.335938 175.75 258.722656 178.785156 C 261.882812 179.851562 264.582031 182.855469 265.464844 186.117188 Z M 250.15625 142.648438 C 249.992188 141.871094 249.882812 141.0625 249.882812 140.191406 C 249.207031 136.660156 249.84375 133.019531 252.507812 130.230469 C 256.46875 126.179688 262.558594 126.40625 266.945312 129.445312 C 270.140625 130.5625 272.839844 133.570312 273.722656 136.832031 C 275.378906 142.914062 272.140625 149.453125 266.015625 151.28125 C 264.273438 151.785156 262.59375 151.894531 261.003906 151.660156 C 260.917969 151.636719 260.808594 151.699219 260.722656 151.675781 C 255.511719 151.589844 251.222656 147.476562 250.15625 142.648438 Z M 295.746094 204.65625 C 290.308594 203.175781 286.746094 198.566406 285.535156 193.242188 C 284.0625 186.976562 286.925781 181.167969 293.058594 178.972656 C 295.035156 178.253906 297.363281 178.132812 299.578125 178.441406 C 302.886719 178.257812 306.242188 179.28125 308.890625 181.953125 C 310.964844 184.011719 312.296875 186.796875 312.820312 189.6875 C 312.828125 189.828125 312.894531 189.9375 312.871094 190.023438 C 313.398438 193.421875 312.726562 197.011719 310.65625 199.816406 C 307.230469 204.285156 301.1875 206.136719 295.746094 204.65625 Z M 316.648438 202.863281 C 316.347656 202.96875 315.835938 202.464844 314.839844 201.882812 C 316.625 201.203125 317.773438 200.679688 318.964844 200.351562 C 319.210938 200.28125 319.644531 200.898438 319.976562 201.214844 C 318.859375 201.792969 317.828125 202.394531 316.648438 202.863281 Z M 318.511719 196.835938 C 318.585938 197.085938 317.964844 197.519531 317.527344 198.136719 C 317.007812 197.496094 316.386719 197.054688 316.394531 196.691406 C 316.453125 196.292969 317.015625 195.890625 317.386719 195.527344 C 317.78125 195.953125 318.28125 196.316406 318.511719 196.835938 Z M 318.511719 196.835938 " fill-opacity="1" fill-rule="nonzero"/></g></g></g><g clip-path="url(#4362b846b5)"><g clip-path="url(#61ee2518a9)"><g clip-path="url(#6f2503c73e)"><path fill="#1bbbf4" d="M 123.214844 236.414062 C 119.390625 230.359375 115.445312 224.085938 112.4375 217.554688 L 112.339844 217.390625 L 112.136719 217.292969 C 107.441406 214.722656 102.761719 212.800781 98.722656 211.234375 L 98.550781 211.1875 C 93.382812 210.421875 88.589844 208.5625 85.488281 207.101562 L 85.402344 207.078125 L 85.316406 207.058594 C 75.15625 205.710938 64.679688 203.320312 54.160156 199.859375 L 53.988281 199.8125 C 47.65625 198.925781 41.398438 198.285156 35.40625 197.855469 C 33.511719 197.722656 31.574219 197.765625 29.6875 197.773438 L 29.65625 197.71875 C 27.632812 197.734375 25.609375 197.753906 23.574219 197.628906 L 23.347656 197.617188 L 23.132812 197.742188 C 21.492188 198.917969 20.550781 200.046875 20.039062 201.289062 L 19.917969 201.578125 L 20.074219 201.851562 C 21.472656 203.871094 22.691406 206.210938 23.71875 208.226562 C 24.328125 209.398438 25.066406 210.785156 25.792969 212.035156 C 28.734375 217.078125 31.546875 221.90625 34.363281 226.730469 C 35.277344 228.304688 36.25 229.847656 37.167969 231.417969 L 38.359375 233.339844 C 42.070312 239.460938 45.878906 245.742188 49.050781 252.179688 L 49.113281 252.289062 C 51.375 255.546875 53.554688 257.910156 56.007812 259.75 C 57.960938 261.230469 60.101562 262.160156 61.835938 262.894531 L 61.867188 262.949219 L 61.953125 262.96875 C 68.78125 264.585938 75.722656 266.644531 81.859375 268.445312 L 82.375 268.578125 C 87.652344 270.152344 93.070312 271.71875 98.359375 273.066406 C 103.738281 274.4375 109.441406 275.617188 114.488281 276.671875 C 121.277344 278.09375 128.203125 279.507812 134.910156 281.410156 L 134.996094 281.433594 L 135.304688 281.46875 C 135.84375 281.519531 136.296875 281.546875 136.75 281.574219 C 137.113281 281.578125 137.566406 281.605469 138.050781 281.6875 C 140.113281 281.863281 142.203125 281.957031 143.296875 281.464844 C 143.460938 281.367188 143.621094 281.273438 143.730469 281.210938 C 145.683594 280.070312 145.511719 278.28125 145.09375 275.691406 C 145.035156 275.21875 144.941406 274.691406 144.851562 274.160156 C 144.851562 274.160156 144.820312 274.105469 144.84375 274.019531 L 144.867188 273.933594 C 144.867188 273.933594 144.761719 273.632812 144.730469 273.578125 L 144.667969 273.46875 C 142.761719 270.945312 141.234375 268.203125 139.824219 265.535156 C 135.773438 258.089844 132.742188 252.515625 129.921875 247.546875 C 127.917969 243.992188 125.660156 240.367188 123.445312 236.933594 Z M 47.089844 217.277344 C 47.039062 217.816406 46.90625 218.332031 46.597656 218.800781 C 45.367188 220.679688 42.460938 220.558594 40.617188 219.886719 C 40.414062 219.789062 40.210938 219.6875 39.953125 219.621094 C 39.695312 219.554688 39.523438 219.507812 39.320312 219.410156 C 35.03125 217.910156 26.542969 211.449219 29.574219 206.050781 C 33.132812 199.691406 41.109375 204.777344 43.941406 209.011719 C 43.972656 209.066406 43.972656 209.066406 44.007812 209.121094 C 44.460938 209.652344 44.925781 210.328125 45.371094 211.085938 C 47 213.261719 47.910156 215.566406 47.089844 217.277344 Z M 78.480469 249.558594 C 78.808594 249.875 79.105469 250.136719 79.460938 250.367188 C 79.105469 250.136719 78.777344 249.820312 78.480469 249.558594 Z M 91.40625 246.671875 C 92.765625 250.75 90.789062 255.464844 85.824219 254.429688 C 84.65625 254.167969 82.636719 252.949219 80.472656 251.230469 C 80.644531 251.277344 80.816406 251.320312 80.933594 251.398438 C 81.3125 250.304688 81.558594 249.726562 81.769531 249.09375 C 80.625 249.25 79.503906 249.324219 78.363281 249.480469 C 74.359375 245.855469 70.5625 241.089844 71.613281 238.152344 C 71.667969 237.25 72.035156 236.382812 73 235.671875 C 76.4375 233.089844 81.890625 236.960938 84.511719 239.210938 C 87.648438 240.726562 90.347656 243.367188 91.40625 246.671875 Z M 134.429688 267.375 C 134.71875 268.367188 134.695312 269.328125 134.414062 270.21875 C 134.171875 271.667969 133.269531 272.992188 131.464844 273.753906 C 128.234375 275.199219 124.914062 272.992188 122.242188 270.773438 C 119.792969 269.441406 117.640625 267.496094 116.429688 265.296875 C 116.144531 264.808594 116.03125 264.363281 115.921875 263.921875 C 115.921875 263.921875 115.886719 263.867188 115.886719 263.867188 C 115.847656 263.671875 115.777344 263.425781 115.820312 263.253906 C 114.945312 260.128906 116.613281 256.757812 120.359375 256.828125 C 123.65625 256.867188 127.105469 258.925781 129.757812 261.230469 C 131.976562 262.917969 133.746094 265.082031 134.429688 267.375 Z M 362.355469 191.261719 L 361.730469 190.316406 L 361.605469 190.101562 C 361.277344 189.417969 359.597656 186.910156 357.8125 184.097656 C 358.78125 189.496094 349.324219 182 346.035156 174.613281 C 342.027344 165.617188 345.851562 167.816406 349.945312 171.972656 L 349.628906 171.429688 L 349.566406 171.320312 C 349.503906 171.210938 349.441406 171.105469 349.375 170.996094 C 349.28125 170.832031 349.21875 170.722656 349.101562 170.648438 C 346.851562 167.164062 344.347656 163.242188 341.65625 159 C 341.449219 159.265625 341.132812 159.597656 340.816406 159.925781 C 340.171875 159.066406 339.800781 158.554688 339.429688 158.046875 C 339.777344 157.769531 340.179688 157.460938 340.527344 157.1875 C 336.800781 151.292969 332.734375 144.941406 328.726562 138.558594 C 327.4375 136.476562 326.203125 134.363281 324.875 132.082031 C 323.074219 128.992188 321.261719 125.761719 319.242188 122.796875 C 317.847656 120.773438 315.832031 119.1875 313.371094 118.078125 C 312.042969 117.546875 310.835938 116.722656 309.519531 115.964844 C 308.933594 115.578125 308.347656 115.195312 307.703125 114.84375 C 303.898438 112.554688 299.996094 110.46875 296.164062 108.632812 C 295.265625 108.214844 294.335938 107.738281 293.402344 107.265625 C 288.40625 104.800781 282.734375 101.929688 277.097656 100.855469 L 275.785156 100.601562 L 276.394531 101.773438 C 277.164062 103.214844 277.898438 104.601562 278.636719 105.992188 C 279.886719 108.386719 281.136719 110.78125 282.496094 113.113281 C 284.585938 116.691406 286.8125 120.265625 288.636719 123.269531 C 290.242188 125.53125 291.742188 127.851562 293.117188 129.960938 C 294.859375 132.578125 300.136719 139.382812 306.292969 147.203125 C 308.53125 150.042969 310.828125 152.988281 313.128906 155.9375 L 313.191406 156.042969 L 313.308594 156.121094 C 313.339844 156.175781 313.425781 156.199219 313.425781 156.199219 C 315.5 158.261719 329.769531 175.011719 331.683594 178.039062 L 331.746094 178.148438 C 332.671875 178.988281 333.488281 179.894531 334.308594 180.796875 C 335.367188 181.996094 336.515625 183.214844 337.761719 184.234375 C 339.371094 185.621094 341.101562 186.71875 342.832031 187.816406 C 344.445312 188.839844 346.089844 189.914062 347.519531 191.117188 C 347.550781 191.171875 347.636719 191.195312 347.667969 191.25 L 347.761719 191.414062 C 347.761719 191.414062 349.089844 191.945312 349.667969 192.191406 C 349.925781 192.257812 350.128906 192.355469 350.417969 192.480469 C 350.472656 192.449219 350.527344 192.417969 350.613281 192.4375 C 350.808594 192.398438 351.074219 192.605469 351.285156 192.847656 C 352.121094 193.15625 352.988281 193.523438 353.824219 193.835938 C 354.863281 194.246094 355.957031 194.628906 356.964844 194.984375 L 357.136719 195.03125 C 357.308594 195.074219 357.449219 195.066406 357.597656 195.199219 C 357.628906 195.25 357.714844 195.273438 357.714844 195.273438 L 357.746094 195.328125 L 357.867188 195.40625 C 360.03125 196.25 362.601562 197.296875 365.082031 198.683594 C 365.167969 198.707031 365.199219 198.761719 365.199219 198.761719 L 366.132812 197.996094 C 365.367188 195.683594 363.84375 193.445312 362.355469 191.261719 Z M 307.53125 132.746094 C 308.28125 139.140625 300.726562 133.664062 298.972656 131.777344 C 296.582031 129.175781 294.695312 126.058594 293.03125 122.960938 C 291.980469 121.027344 290.285156 117.875 291.070312 115.601562 C 291.753906 113.53125 293.148438 113.808594 294.683594 114.945312 C 294.957031 114.789062 295.375 114.761719 295.675781 115.023438 C 298.808594 117.410156 301.0625 120.53125 303.046875 123.808594 C 304.671875 126.347656 307.195312 129.675781 307.53125 132.746094 Z M 342.199219 174.015625 C 348.820312 187.742188 333.664062 178.699219 329.664062 168.96875 C 325.402344 158.664062 330.398438 161.128906 335.421875 165.757812 C 335.066406 166.765625 334.675781 167.71875 334.320312 168.726562 C 335.515625 168.539062 336.660156 168.378906 337.859375 168.191406 C 339.769531 170.347656 341.484375 172.542969 342.199219 174.015625 Z M 335.398438 165.84375 C 335.761719 166.214844 336.175781 166.554688 336.570312 166.980469 C 336.175781 166.554688 335.816406 166.183594 335.398438 165.84375 Z M 323.132812 139.566406 C 320.855469 142.640625 317.199219 137.867188 315.855469 136.179688 C 312.980469 132.621094 309.5625 128.003906 309.429688 123.285156 C 309.433594 122.917969 309.726562 122.675781 310.09375 122.679688 C 314.289062 121.902344 317.925781 126.394531 320.226562 129.34375 C 321.921875 131.625 325.359375 136.527344 323.132812 139.566406 Z M 48.015625 146.683594 C 48.003906 146.546875 47.996094 146.40625 48.019531 146.320312 C 48.226562 146.050781 48.488281 145.753906 48.695312 145.488281 C 48.75 145.457031 48.75 145.457031 48.773438 145.371094 C 48.980469 145.105469 49.277344 144.859375 49.539062 144.5625 C 49.773438 144.714844 49.921875 144.847656 49.929688 144.988281 C 49.890625 145.664062 49.34375 146.347656 48.90625 146.964844 C 48.742188 147.058594 48.023438 146.824219 48.015625 146.683594 Z M 132.253906 132.75 C 131.832031 133.648438 131.445312 134.601562 130.894531 135.652344 C 130.097656 135.535156 129.558594 135.484375 129.078125 135.402344 C 129.410156 134.480469 129.542969 133.457031 130.144531 132.746094 C 130.429688 132.359375 131.523438 132.742188 132.253906 132.75 Z M 127.898438 267.765625 C 127.730469 268.226562 127.660156 268.851562 127.332031 269.039062 C 126.953125 269.261719 126.300781 269.132812 125.234375 269.175781 C 125.792969 268.265625 126.003906 267.632812 126.417969 267.46875 C 126.828125 267.300781 127.382812 267.628906 127.898438 267.765625 Z M 130.789062 264.121094 C 130.585938 264.890625 130.414062 265.71875 130.089844 266.414062 C 130.015625 266.53125 129.242188 266.328125 127.285156 266.089844 C 128.085938 264.96875 128.484375 264.15625 129.125 263.636719 C 129.394531 263.476562 130.1875 263.960938 130.789062 264.121094 Z M 305.15625 185.144531 C 304.351562 184.886719 303.644531 184.792969 303.453125 184.46875 C 303.265625 184.140625 303.585938 183.445312 303.722656 182.929688 C 304.269531 183.121094 304.945312 183.160156 305.363281 183.5 C 305.542969 183.6875 305.222656 184.382812 305.15625 185.144531 Z M 308.875 186.539062 C 308.238281 187.5625 307.632812 188.644531 306.910156 189.648438 C 306.757812 189.882812 306.015625 189.734375 304.863281 189.75 C 306 188.214844 306.726562 187.210938 307.566406 186.285156 C 307.71875 186.050781 308.445312 186.425781 308.875 186.539062 Z M 289.214844 187.464844 C 289.800781 187.847656 290.441406 188.199219 292.054688 189.222656 C 291.738281 189.550781 291.332031 190.226562 290.78125 190.402344 C 290.476562 190.503906 289.578125 190.085938 289.441406 189.726562 C 289.203125 189.066406 289.289062 188.21875 289.214844 187.464844 Z M 312.789062 189.636719 C 312.796875 189.773438 312.859375 189.882812 312.839844 189.96875 C 312.839844 189.96875 312.871094 190.023438 312.816406 190.054688 C 312.730469 190.03125 312.644531 190.011719 312.503906 190.019531 C 312.667969 189.925781 312.710938 189.753906 312.789062 189.636719 Z M 332.136719 163.238281 C 332.058594 163.722656 332.007812 164.261719 331.890625 165.058594 C 331.171875 164.820312 330.375 164.703125 330.335938 164.507812 C 330.222656 164.066406 330.457031 163.347656 330.75 163.105469 C 331.042969 162.859375 331.65625 163.160156 332.136719 163.238281 Z M 333.335938 173.152344 C 333.308594 173.601562 333.261719 174.140625 333.179688 174.625 C 332.722656 174.089844 332.289062 173.472656 331.886719 172.90625 C 331.941406 172.875 331.941406 172.875 331.964844 172.789062 C 332.09375 172.640625 333.359375 173.066406 333.335938 173.152344 Z M 333.335938 173.152344 " fill-opacity="1" fill-rule="nonzero"/></g></g></g><g clip-path="url(#29ee5df55a)"><g clip-path="url(#39073f48a5)"><g clip-path="url(#398225a278)"><path fill="#7a49a9" d="M 166.734375 131.6875 L 166.671875 131.582031 L 166.609375 131.472656 C 165.757812 130.515625 164.761719 129.425781 163.738281 128.421875 L 163.527344 128.179688 L 163.195312 128.230469 C 162.332031 128.371094 161.398438 128.769531 160.367188 129.367188 C 159.339844 129.96875 158.535156 130.585938 158.164062 130.945312 L 158.054688 131.007812 L 157.976562 131.125 C 156.390625 134.886719 154.289062 138.507812 152.261719 142.015625 L 151.832031 142.773438 C 151.480469 143.417969 151.148438 143.972656 150.796875 144.613281 C 147.339844 150.773438 143.480469 156.871094 139.8125 162.789062 L 139.152344 163.902344 C 137.214844 167.066406 135.195312 170.207031 133.257812 173.367188 L 130.6875 177.554688 C 126.507812 184.351562 122.992188 190.035156 119.417969 195.75 L 119.367188 195.785156 L 119.066406 196.394531 C 118.890625 196.714844 118.769531 197.003906 118.625 197.378906 L 118.601562 197.464844 C 118.058594 198.652344 117.539062 199.753906 117.105469 200.878906 L 117.058594 201.050781 C 117.027344 201.871094 116.910156 202.664062 116.792969 203.460938 L 116.734375 203.859375 C 116.464844 206.265625 116.191406 208.535156 116.449219 210.855469 C 116.703125 213.03125 117.507812 215.035156 118.28125 216.980469 L 118.476562 217.449219 L 118.507812 217.5 C 122.5625 223.207031 125.972656 229.429688 129.234375 235.523438 C 130.632812 238.050781 131.789062 240.28125 133.085938 242.503906 C 138.574219 252.167969 143.671875 261.914062 147.941406 270.109375 L 147.972656 270.164062 L 148.003906 270.214844 C 148.492188 270.804688 148.902344 271.507812 149.171875 272.222656 L 149.269531 272.386719 L 149.472656 272.484375 C 150.820312 273.300781 152.582031 273.578125 154.296875 273.160156 C 155.324219 272.925781 156.191406 272.417969 157.199219 271.90625 L 157.253906 271.875 C 158.066406 271.398438 158.773438 270.988281 159.625 270.707031 L 159.734375 270.644531 L 159.8125 270.527344 C 160.785156 269.453125 161.722656 268.324219 162.65625 267.054688 C 163.753906 265.324219 164.753906 263.796875 165.808594 262.238281 C 167.808594 258.816406 169.625 255.070312 171.390625 251.496094 L 171.511719 251.207031 C 172.386719 249.464844 173.328125 247.460938 174.222656 245.632812 C 175.546875 243.042969 176.808594 240.34375 178.078125 237.789062 L 178.355469 237.261719 C 181.484375 230.789062 184.679688 224.054688 188.570312 218.011719 L 188.589844 217.925781 L 188.613281 217.839844 C 189.207031 216.113281 189.875 214.269531 190.492188 212.457031 C 185.875 205.410156 181.460938 198.464844 177.15625 191.453125 C 177.09375 191.34375 177 191.179688 176.988281 191.042969 L 176.949219 190.847656 L 176.800781 190.714844 C 173.109375 187.125 171.382812 183.046875 171.546875 178.589844 C 171.847656 171.875 176.609375 164.957031 182.488281 158.839844 C 181.761719 157.59375 181.066406 156.398438 180.371094 155.207031 C 178.917969 152.710938 177.324219 150.226562 175.632812 147.578125 C 172.585938 142.59375 169.089844 137.222656 166.734375 131.6875 Z M 127.046875 217.683594 C 123.753906 216.769531 123.113281 212.929688 123.203125 209.96875 C 123.371094 205.148438 127.164062 196.324219 133.484375 198.308594 C 136.667969 199.285156 137.816406 203.125 137.613281 206.144531 C 137.511719 207.589844 137.15625 209.101562 136.632812 210.570312 C 136.351562 211.460938 136.019531 212.382812 135.589844 213.140625 C 133.9375 215.921875 130.511719 218.644531 127.046875 217.683594 Z M 162.847656 245.941406 C 164.148438 249.542969 164.210938 254.011719 161.75 256.898438 C 160.753906 258.058594 159.53125 258.699219 158.300781 258.835938 C 156.96875 259.539062 155.492188 259.746094 153.949219 258.976562 C 151.511719 257.78125 150.605469 255.109375 150.445312 252.589844 C 150.25 250.011719 150.871094 246.960938 152.257812 244.480469 C 152.890625 242.949219 153.878906 241.648438 155.15625 240.976562 C 155.375 240.847656 155.570312 240.808594 155.792969 240.820312 C 155.847656 240.789062 155.902344 240.757812 155.957031 240.726562 C 156.066406 240.664062 156.121094 240.632812 156.261719 240.625 C 156.261719 240.625 156.3125 240.589844 156.3125 240.589844 C 158.046875 239.945312 160 240.1875 161.339844 241.730469 C 162.367188 242.875 162.75 244.398438 162.847656 245.941406 Z M 167.660156 201.710938 C 166.828125 204.523438 165.015625 207.398438 162.378906 208.859375 C 159.308594 210.578125 156.144531 209.007812 155.148438 205.808594 C 154.515625 203.851562 154.394531 201.523438 154.757812 199.277344 C 154.585938 195.742188 155.699219 192.042969 158.1875 190.449219 C 161.050781 188.632812 164.730469 189.832031 166.535156 192.558594 C 168.226562 195.207031 168.484375 198.761719 167.660156 201.710938 Z M 173.859375 202.75 C 172.996094 202.890625 171.910156 201.777344 169.730469 200.652344 C 172.332031 200.007812 173.683594 199.582031 175.054688 199.4375 C 175.613281 199.402344 176.195312 200.152344 176.785156 200.535156 C 175.847656 201.300781 174.972656 202.539062 173.859375 202.75 Z M 168.097656 144.121094 C 169.332031 148.488281 167.441406 154.09375 164.300781 157.308594 C 162.503906 159.082031 159.890625 160.460938 157.449219 159.265625 C 155.363281 158.304688 154.4375 155.71875 154.355469 153.585938 C 154.332031 151.925781 154.589844 150.25 155.246094 148.632812 C 155.667969 145.988281 156.679688 143.363281 157.941406 141.539062 C 161.242188 136.851562 166.683594 139.203125 168.097656 144.121094 Z M 367.238281 203.382812 C 365.929688 203.132812 364.625 202.511719 363.519531 201.992188 C 362.183594 201.316406 360.867188 200.558594 359.308594 199.503906 L 359.222656 199.480469 L 359.136719 199.460938 C 357.992188 199.109375 357.015625 198.808594 356.007812 198.449219 L 355.921875 198.429688 L 355.835938 198.40625 C 355.46875 198.402344 355.15625 198.363281 354.757812 198.304688 C 356.53125 199.597656 358.152344 200.761719 359.742188 201.867188 C 359.363281 202.089844 358.917969 202.570312 358.660156 202.5 C 356.03125 201.488281 353.429688 200.390625 350.773438 199.320312 C 351.308594 198.863281 351.871094 198.464844 352.40625 198.007812 C 351.523438 197.867188 350.695312 197.695312 349.785156 197.5 L 349.613281 197.453125 L 349.449219 197.550781 C 349.203125 197.621094 348.953125 197.695312 348.726562 197.679688 C 347.566406 197.558594 346.386719 197.15625 345.101562 196.449219 L 344.984375 196.375 L 344.84375 196.382812 C 342.890625 196.140625 341.226562 196.53125 339.4375 197.574219 C 338.132812 198.332031 336.828125 199.457031 335.792969 200.425781 C 335.738281 200.457031 335.683594 200.488281 335.574219 200.550781 C 335.519531 200.582031 335.46875 200.613281 335.414062 200.644531 L 335.164062 200.71875 L 335.066406 200.921875 C 332.464844 205.5625 327.625 209.472656 323.75 212.675781 C 315.089844 219.761719 307.222656 226.089844 299.082031 232.070312 C 297.660156 233.117188 296.375 234.15625 295.234375 235.1875 C 289.320312 240.378906 279.574219 248.09375 275.398438 251.398438 L 274.191406 252.320312 L 274.136719 252.351562 C 269.425781 257.859375 263.90625 263.476562 256.289062 270.605469 C 255.582031 271.382812 254.933594 272.269531 254.730469 273.039062 C 254.511719 274.039062 254.902344 274.828125 255.925781 275.46875 L 256.011719 275.488281 L 256.097656 275.511719 C 260.664062 276.484375 265.222656 276.953125 269.128906 277.292969 C 280.214844 278.242188 289.5 273.847656 297.09375 269.417969 C 297.746094 269.039062 298.449219 268.628906 299.101562 268.25 C 307.605469 263.144531 316.597656 257.25 326.558594 250.28125 C 330.382812 247.617188 357.953125 224.351562 363.746094 215.59375 C 364.054688 215.125 364.339844 214.738281 364.570312 214.386719 L 364.625 214.355469 L 365.113281 213.199219 C 366.355469 210.222656 367.621094 207.15625 367.714844 204.199219 L 367.710938 203.691406 Z M 265.875 271.339844 C 264.46875 271.796875 260.882812 272.871094 259.691406 271.457031 C 258.78125 270.390625 260.558594 268.699219 261.242188 268.007812 C 263.097656 266.199219 265.28125 264.710938 267.410156 263.25 C 268.648438 262.382812 269.917969 261.570312 271.273438 260.78125 C 272.519531 260.054688 282.78125 253.34375 287.273438 253.199219 C 288.707031 253.160156 287.757812 255.023438 287.339844 255.554688 C 286.53125 256.535156 285.574219 257.386719 284.648438 258.289062 C 282.476562 260.425781 280.125 262.378906 277.746094 264.277344 C 274.15625 267.09375 270.285156 269.929688 265.875 271.339844 Z M 279.183594 270.484375 C 278.027344 270.867188 275.042969 271.734375 274.070312 270.5625 C 273.335938 269.679688 274.765625 268.265625 275.375 267.691406 C 276.914062 266.214844 278.714844 264.945312 280.464844 263.707031 C 281.519531 263.019531 282.570312 262.332031 283.65625 261.703125 C 284.6875 261.101562 293.21875 255.542969 296.980469 255.386719 C 298.1875 255.339844 297.359375 256.910156 297.019531 257.328125 C 296.34375 258.15625 295.515625 258.859375 294.773438 259.582031 C 292.972656 261.355469 291.027344 263 289.015625 264.535156 C 286.097656 266.890625 282.847656 269.292969 279.183594 270.484375 Z M 308.296875 258.09375 C 307.585938 258.871094 306.84375 259.59375 306.101562 260.316406 C 304.304688 262.089844 302.410156 263.703125 300.398438 265.242188 C 297.398438 267.570312 294.285156 269.964844 290.589844 271.101562 C 289.433594 271.488281 286.449219 272.355469 285.507812 271.234375 C 284.773438 270.351562 286.203125 268.9375 286.757812 268.394531 C 288.296875 266.917969 290.097656 265.648438 291.824219 264.496094 C 292.878906 263.808594 293.933594 263.125 295.015625 262.492188 C 296.046875 261.890625 304.527344 256.367188 308.199219 256.1875 C 309.40625 256.136719 308.632812 257.675781 308.296875 258.09375 Z M 346.75 201.519531 C 347 201.449219 347.828125 202.492188 347.773438 202.523438 C 347.125 203.410156 346.414062 204.1875 345.550781 205.199219 C 344.3125 204.320312 343.375 203.707031 342.519531 203.113281 C 343.949219 202.574219 345.3125 201.921875 346.75 201.519531 Z M 314.074219 232.851562 C 312.667969 233.308594 309.078125 234.382812 307.890625 232.96875 C 306.980469 231.898438 308.753906 230.210938 309.441406 229.519531 C 311.296875 227.710938 313.480469 226.222656 315.609375 224.761719 C 316.847656 223.894531 318.117188 223.082031 319.472656 222.292969 C 320.71875 221.566406 330.980469 214.855469 335.472656 214.710938 C 336.90625 214.671875 335.953125 216.535156 335.539062 217.066406 C 334.730469 218.046875 333.773438 218.898438 332.84375 219.800781 C 330.675781 221.9375 328.324219 223.890625 325.941406 225.785156 C 322.355469 228.605469 318.515625 231.496094 314.074219 232.851562 Z M 327.382812 231.996094 C 326.226562 232.378906 323.242188 233.246094 322.265625 232.070312 C 321.535156 231.191406 322.964844 229.777344 323.574219 229.203125 C 325.109375 227.726562 326.914062 226.457031 328.664062 225.21875 C 329.714844 224.53125 330.769531 223.84375 331.855469 223.210938 C 332.886719 222.613281 341.417969 217.054688 345.179688 216.898438 C 346.386719 216.851562 345.558594 218.421875 345.21875 218.835938 C 344.539062 219.667969 343.714844 220.371094 342.972656 221.09375 C 341.171875 222.867188 339.222656 224.511719 337.214844 226.046875 C 334.328125 228.457031 331.078125 230.859375 327.382812 231.996094 Z M 356.523438 219.660156 C 355.816406 220.4375 355.074219 221.160156 354.332031 221.882812 C 352.535156 223.65625 350.640625 225.269531 348.628906 226.804688 C 345.625 229.136719 342.515625 231.53125 338.820312 232.667969 C 337.664062 233.050781 334.679688 233.917969 333.734375 232.796875 C 333.003906 231.917969 334.433594 230.503906 334.988281 229.960938 C 336.527344 228.484375 338.328125 227.214844 340.054688 226.0625 C 341.109375 225.375 342.160156 224.6875 343.246094 224.058594 C 344.277344 223.457031 352.757812 217.933594 356.429688 217.753906 C 357.691406 217.671875 356.863281 219.242188 356.523438 219.660156 Z M 129.710938 212.28125 C 129.832031 212.863281 129.671875 213.464844 129.6875 214.109375 C 129.203125 214.03125 128.773438 213.917969 127.976562 213.800781 C 128.289062 212.964844 128.480469 212.417969 128.671875 211.871094 C 129.011719 211.960938 129.667969 212.085938 129.710938 212.28125 Z M 130.425781 208.519531 C 129.9375 208.804688 129.226562 208.710938 127.964844 208.792969 C 128.539062 207.65625 128.691406 206.917969 129.144531 206.578125 C 129.472656 206.386719 130.363281 206.667969 130.667969 207.070312 C 130.914062 207.363281 130.695312 208.363281 130.425781 208.519531 Z M 130.425781 208.519531 " fill-opacity="1" fill-rule="nonzero"/></g></g></g></svg>