<svg xmlns="http://www.w3.org/2000/svg" xmlns:xlink="http://www.w3.org/1999/xlink" width="1200" zoomAndPan="magnify" viewBox="0 0 900 449.999984" height="600" preserveAspectRatio="xMidYMid meet" version="1.0"><defs><g/><clipPath id="add7205cc9"><path d="M 40 149 L 337 149 L 337 306 L 40 306 Z M 40 149 " clip-rule="nonzero"/></clipPath><clipPath id="351934f6b3"><path d="M 18.265625 196.296875 L 239.863281 67.117188 L 348.644531 253.726562 L 127.046875 382.90625 Z M 18.265625 196.296875 " clip-rule="nonzero"/></clipPath><clipPath id="595f761b6f"><path d="M 18.265625 196.296875 L 239.863281 67.117188 L 348.644531 253.726562 L 127.046875 382.90625 Z M 18.265625 196.296875 " clip-rule="nonzero"/></clipPath><clipPath id="2c43ef7979"><path d="M 18.265625 196.296875 L 239.863281 67.117188 L 348.644531 253.726562 L 127.046875 382.90625 Z M 18.265625 196.296875 " clip-rule="nonzero"/></clipPath><clipPath id="48bcff5a22"><path d="M 47 156 L 303 156 L 303 290 L 47 290 Z M 47 156 " clip-rule="nonzero"/></clipPath><clipPath id="d22965c443"><path d="M 18.265625 196.296875 L 239.863281 67.117188 L 348.644531 253.726562 L 127.046875 382.90625 Z M 18.265625 196.296875 " clip-rule="nonzero"/></clipPath><clipPath id="ca9e6fa79f"><path d="M 18.265625 196.296875 L 239.863281 67.117188 L 348.644531 253.726562 L 127.046875 382.90625 Z M 18.265625 196.296875 " clip-rule="nonzero"/></clipPath><clipPath id="501b5e070b"><path d="M 18.265625 196.296875 L 239.863281 67.117188 L 348.644531 253.726562 L 127.046875 382.90625 Z M 18.265625 196.296875 " clip-rule="nonzero"/></clipPath><clipPath id="ebe1ff12d2"><path d="M 46 154 L 329 154 L 329 302 L 46 302 Z M 46 154 " clip-rule="nonzero"/></clipPath><clipPath id="1126c0c107"><path d="M 18.265625 196.296875 L 239.863281 67.117188 L 348.644531 253.726562 L 127.046875 382.90625 Z M 18.265625 196.296875 " clip-rule="nonzero"/></clipPath><clipPath id="274e986cbd"><path d="M 18.265625 196.296875 L 239.863281 67.117188 L 348.644531 253.726562 L 127.046875 382.90625 Z M 18.265625 196.296875 " clip-rule="nonzero"/></clipPath><clipPath id="e461d7eda7"><path d="M 18.265625 196.296875 L 239.863281 67.117188 L 348.644531 253.726562 L 127.046875 382.90625 Z M 18.265625 196.296875 " clip-rule="nonzero"/></clipPath><clipPath id="c7f4c3d4ef"><path d="M 125 176 L 331 176 L 331 299 L 125 299 Z M 125 176 " clip-rule="nonzero"/></clipPath><clipPath id="11424e28f9"><path d="M 18.265625 196.296875 L 239.863281 67.117188 L 348.644531 253.726562 L 127.046875 382.90625 Z M 18.265625 196.296875 " clip-rule="nonzero"/></clipPath><clipPath id="50195e9c68"><path d="M 18.265625 196.296875 L 239.863281 67.117188 L 348.644531 253.726562 L 127.046875 382.90625 Z M 18.265625 196.296875 " clip-rule="nonzero"/></clipPath><clipPath id="ef63d6cfd8"><path d="M 18.265625 196.296875 L 239.863281 67.117188 L 348.644531 253.726562 L 127.046875 382.90625 Z M 18.265625 196.296875 " clip-rule="nonzero"/></clipPath></defs><g clip-path="url(#add7205cc9)"><g clip-path="url(#351934f6b3)"><g clip-path="url(#595f761b6f)"><g clip-path="url(#2c43ef7979)"><path fill="#090909" d="M 335.179688 233.097656 C 337.21875 238.421875 336.164062 243.417969 331.886719 248.871094 C 331.617188 249.324219 331.386719 249.636719 331.101562 249.863281 C 329.863281 250.882812 326.523438 254.1875 322.347656 258.398438 C 313.796875 266.878906 302.128906 278.535156 296.839844 282.152344 C 295.238281 283.261719 293.589844 284.398438 291.882812 285.632812 C 287.148438 288.984375 282.195312 292.464844 277.027344 295.476562 C 266.515625 301.605469 257.582031 304.148438 249.039062 303.503906 C 241.089844 302.867188 232.773438 301.796875 226.109375 297.980469 C 219.5 294.257812 214.992188 287.945312 210.613281 281.855469 C 210.234375 281.304688 209.855469 280.757812 209.433594 280.234375 C 201.984375 269.894531 195.117188 260.042969 188.566406 250.125 C 186.140625 256.925781 182.613281 263.363281 179.238281 269.65625 L 178.867188 270.34375 C 177.664062 272.644531 176.371094 274.996094 175.195312 277.339844 C 174.691406 278.402344 174.140625 279.492188 173.59375 280.582031 C 172.441406 282.972656 171.144531 285.621094 169.65625 288.144531 C 168.597656 290.183594 167.265625 292.265625 165.605469 294.59375 C 165.359375 295.089844 165.074219 295.613281 164.777344 296.023438 C 164.058594 297.625 163.039062 299.226562 161.863281 300.5625 C 160.644531 301.925781 159.277344 303.136719 157.867188 303.960938 C 157.421875 304.214844 157.027344 304.449219 156.648438 304.609375 C 152.882812 306.273438 148.914062 305.863281 145.902344 305.367188 C 143.53125 305.566406 140.773438 305.398438 137.640625 304.796875 C 129.539062 303.894531 121.320312 301.878906 113.355469 299.890625 L 109.628906 298.980469 C 100.503906 296.726562 91.050781 294.421875 82.140625 290.910156 C 76.730469 290.15625 71.296875 286.21875 68.339844 280.839844 L 68.3125 280.796875 C 64.632812 275.601562 61.476562 269.980469 58.394531 264.492188 C 57.382812 262.65625 56.328125 260.84375 55.316406 259.007812 C 53.253906 255.472656 51.039062 251.671875 48.335938 247.03125 C 47.742188 246.015625 47.054688 244.9375 46.46875 244.035156 L 46.441406 243.992188 C 45.117188 241.921875 43.765625 239.808594 42.796875 237.53125 C 41.382812 235.511719 40.601562 232.652344 40.792969 230.234375 C 40.90625 228.804688 41.523438 227.734375 42.140625 226.664062 C 42.535156 226.019531 42.929688 225.375 43.28125 224.757812 L 43.59375 224.277344 C 43.753906 223.949219 43.941406 223.660156 44.128906 223.375 C 44.167969 223.234375 44.203125 223.09375 44.214844 222.910156 C 44.371094 222.464844 44.644531 222.125 45 221.917969 L 45.042969 221.894531 L 45.085938 221.867188 L 45.257812 221.652344 C 45.363281 221.53125 45.425781 221.433594 45.488281 221.339844 C 49.117188 213.65625 53.726562 206.234375 58.148438 199.097656 L 59.019531 197.644531 C 59.726562 196.519531 60.386719 195.425781 61.050781 194.328125 C 63.207031 190.820312 65.261719 187.136719 67.28125 183.589844 L 67.296875 183.523438 C 71.003906 176.980469 74.832031 170.25 79.265625 164.050781 C 79.992188 161.4375 81.535156 159.414062 83.875 158.050781 C 89.484375 154.78125 98.179688 155.988281 102.921875 157.011719 C 110.640625 157.664062 118.285156 159.304688 125.628906 160.945312 L 125.769531 160.980469 C 127.1875 161.28125 128.558594 161.605469 129.976562 161.902344 C 137.367188 163.515625 144.832031 164.847656 152.507812 166.234375 C 153.179688 166.375 153.851562 166.515625 154.550781 166.699219 L 154.667969 166.691406 C 154.992188 166.742188 155.289062 166.746094 155.613281 166.792969 L 155.910156 166.796875 L 156.164062 166.828125 C 156.460938 166.828125 156.785156 166.878906 157.085938 166.882812 L 157.199219 166.875 C 159.1875 166.425781 162.023438 167.4375 163.496094 168.234375 C 164.96875 169.035156 166 170.09375 166.613281 171.449219 C 167.429688 172.039062 168.023438 173.058594 168.433594 173.765625 L 168.460938 173.808594 C 168.589844 174.027344 168.667969 174.160156 168.746094 174.292969 L 168.996094 174.621094 C 169.984375 176.117188 171.121094 177.761719 171.992188 179.5625 C 174.222656 182.882812 176.109375 186.519531 177.984375 190.042969 L 178.113281 190.265625 C 179.363281 192.613281 180.460938 194.699219 181.621094 196.6875 C 181.929688 197.21875 182.214844 197.703125 182.546875 198.277344 C 186.175781 194.859375 189.949219 191.890625 192.980469 189.472656 L 193.070312 189.421875 C 193.785156 188.824219 194.484375 188.296875 195.097656 187.824219 C 203.070312 181.398438 212.53125 173.871094 222.082031 166.707031 C 227.394531 162.71875 232.121094 159.253906 236.570312 156.128906 C 236.855469 155.902344 237.164062 155.722656 237.449219 155.5 C 238.652344 154.621094 239.96875 153.734375 241.292969 152.960938 C 243.988281 151.390625 246.332031 150.734375 248.652344 150.859375 C 248.835938 150.871094 249.019531 150.882812 249.1875 150.964844 C 255.945312 148.445312 263.023438 151.246094 268.738281 153.539062 C 272.664062 155.097656 276.683594 157.019531 280.742188 159.210938 C 281.335938 159.515625 281.953125 159.867188 282.589844 160.144531 C 285.335938 161.507812 288.132812 162.953125 289.980469 165.3125 C 294.96875 169.09375 298.339844 174.46875 301.582031 179.625 C 302.191406 180.574219 302.777344 181.472656 303.386719 182.421875 C 308.578125 190.410156 314.152344 199.058594 319.710938 207.777344 C 321.1875 210.113281 322.824219 212.414062 324.523438 214.917969 C 328.539062 220.691406 332.777344 226.742188 335.179688 233.097656 Z M 335.179688 233.097656 " fill-opacity="1" fill-rule="nonzero"/></g></g></g></g><g clip-path="url(#48bcff5a22)"><g clip-path="url(#d22965c443)"><g clip-path="url(#ca9e6fa79f)"><g clip-path="url(#501b5e070b)"><path fill="#ffffff" d="M 153.878906 178.640625 C 154.445312 178.191406 154.789062 177.871094 155.164062 177.59375 C 155.265625 177.769531 155.480469 177.941406 155.628906 178.089844 C 155.925781 177.683594 156.148438 177.253906 156.441406 176.847656 L 156.488281 176.820312 L 156.503906 176.75 C 156.625 176.445312 156.761719 176.070312 156.894531 175.695312 C 156.632812 175.550781 156.375 175.40625 156.015625 175.203125 C 156.503906 174.917969 156.847656 174.597656 157.15625 174.417969 C 157.175781 174.347656 157.125 174.257812 157.144531 174.191406 C 157.269531 172.578125 155.53125 170.511719 140.445312 168.589844 C 139.246094 168.460938 138.203125 168.296875 137.597656 168.175781 C 132.679688 167.253906 127.660156 166.15625 123.246094 165.175781 L 121.941406 164.871094 C 121.453125 164.742188 120.945312 164.683594 120.453125 164.554688 C 120.453125 164.554688 120.453125 164.554688 120.382812 164.535156 C 111.460938 162.632812 101.972656 161.175781 91.507812 160.175781 L 91.4375 160.15625 L 91.390625 160.179688 C 89.328125 160.496094 87.601562 161.089844 86.054688 161.992188 C 84.597656 162.839844 83.363281 163.972656 82.328125 165.347656 L 82.285156 165.371094 L 82.242188 165.398438 C 79.304688 171.019531 75.875 176.507812 72.546875 181.765625 L 72.441406 181.886719 C 69.738281 186.183594 66.660156 191.058594 63.996094 195.925781 C 62.351562 198.898438 60.761719 201.957031 59.128906 205.039062 C 55.695312 211.539062 51.859375 218.867188 47.542969 225.46875 L 47.355469 225.757812 L 47.507812 226.023438 C 47.921875 226.730469 48.585938 227.464844 49.359375 228.082031 L 49.507812 228.230469 L 49.691406 228.242188 C 52.324219 228.1875 54.957031 228.546875 57.269531 228.855469 L 57.636719 228.878906 C 58.46875 228.988281 59.257812 229.121094 60.0625 229.183594 C 64.679688 229.6875 69.476562 230.503906 74.75 231.632812 L 74.792969 231.609375 L 74.835938 231.582031 C 84.371094 232.300781 93.859375 234.464844 102.210938 237.828125 L 102.28125 237.84375 L 102.351562 237.863281 C 104.066406 238.167969 105.832031 238.558594 107.886719 239.136719 L 107.957031 239.15625 C 108.097656 239.191406 108.234375 239.230469 108.332031 239.292969 L 108.636719 239.410156 L 108.988281 239.5 C 109.378906 239.566406 109.800781 239.679688 110.238281 239.71875 C 112.765625 240.199219 115.71875 240.492188 118.214844 239.390625 C 118.214844 239.390625 118.347656 239.3125 118.347656 239.3125 L 118.390625 239.289062 C 119.578125 238.179688 120.5625 236.71875 121.527344 235.328125 L 122.027344 234.5625 C 122.339844 234.085938 122.679688 233.652344 123.019531 233.214844 L 123.0625 233.191406 L 123.082031 233.121094 C 125.558594 227.117188 128.972656 221.398438 132.441406 215.882812 C 132.128906 215.648438 131.742188 215.285156 131.0625 214.730469 C 132.066406 214.324219 132.703125 213.894531 133.363281 213.804688 C 133.476562 213.796875 133.574219 213.859375 133.625 213.949219 C 134.269531 212.921875 134.894531 211.964844 135.539062 210.9375 L 136.101562 210.078125 C 137.292969 208.257812 138.519531 206.300781 139.636719 204.464844 C 142.8125 199.355469 146.109375 193.941406 149.664062 187.960938 C 150.347656 186.796875 151.027344 185.628906 151.703125 184.347656 L 151.925781 183.921875 C 152.726562 182.449219 153.585938 180.878906 154.519531 179.332031 C 154.535156 179.261719 154.265625 179.003906 153.878906 178.640625 Z M 82.058594 177.167969 C 82.222656 176.835938 82.410156 176.546875 82.613281 176.191406 C 81.308594 174.050781 81.628906 171.554688 82.847656 169.484375 C 82.511719 168.910156 82.132812 168.359375 81.929688 167.710938 C 81.871094 167.507812 82.535156 167.121094 82.882812 166.800781 C 83.226562 167.191406 83.546875 167.535156 83.945312 168.015625 C 84.84375 167.019531 86.003906 166.164062 87.226562 165.628906 C 88.351562 164.914062 89.699219 164.484375 91.066406 164.398438 C 94.777344 163.65625 98.675781 164.757812 99.691406 168.429688 C 100.539062 171.605469 98.691406 174.632812 95.96875 176.460938 C 92.832031 179.707031 87.152344 180.828125 83.730469 177.496094 C 83.464844 177.648438 83.199219 177.804688 82.910156 177.914062 C 82.757812 178.0625 81.996094 177.261719 82.058594 177.167969 Z M 106.058594 200.773438 C 106.097656 201.042969 105.613281 201.328125 105.335938 201.667969 C 105.015625 201.320312 104.539062 201.007812 104.375 200.628906 C 104.316406 200.425781 104.726562 200.007812 105.121094 199.363281 C 105.550781 200.003906 105.984375 200.339844 106.058594 200.773438 Z M 98.519531 208.957031 C 97.945312 209.289062 97.328125 209.652344 96.726562 209.941406 C 96.59375 210.019531 96.371094 209.734375 95.871094 209.492188 C 96.710938 209.003906 97.328125 208.640625 97.929688 208.351562 C 98.019531 208.300781 98.320312 208.714844 98.519531 208.957031 Z M 72.378906 221.171875 C 68.941406 224.71875 62.0625 227.128906 57.988281 223.289062 C 56.671875 222.042969 56.046875 220.15625 56.128906 218.273438 C 55.996094 217.226562 56.035156 216.078125 56.390625 214.863281 C 57.960938 209.332031 65.722656 206.40625 70.726562 208.996094 C 75.449219 211.511719 75.988281 217.414062 72.378906 221.171875 Z M 76.960938 218.265625 C 76.640625 217.921875 76.816406 217.109375 76.78125 216.539062 C 77.285156 217.605469 77.761719 218.628906 77.796875 218.785156 C 78.265625 218.984375 77.425781 218.765625 76.960938 218.265625 Z M 79.203125 203.636719 C 73.734375 205.523438 67.160156 202.371094 67.84375 195.933594 C 68.042969 194.039062 69.003906 192.238281 70.375 190.726562 C 70.417969 190.703125 70.417969 190.703125 70.4375 190.632812 C 73.351562 187.511719 78.023438 185.675781 81.769531 186.925781 C 85.894531 188.3125 87.824219 193.046875 86.046875 196.394531 C 85.9375 196.8125 85.753906 197.214844 85.503906 197.597656 C 85.488281 197.667969 85.398438 197.71875 85.378906 197.789062 C 84.230469 200.589844 82.003906 202.65625 79.203125 203.636719 Z M 122.851562 222.066406 C 124.46875 227.277344 120.164062 231.566406 116.027344 233.917969 C 111.761719 236.34375 106.644531 235.894531 104.207031 231.097656 C 101.894531 226.523438 106.679688 222.550781 110.066406 220.339844 C 110.421875 220.132812 110.808594 220.085938 111.132812 220.132812 C 111.503906 219.859375 111.945312 219.601562 112.296875 219.394531 C 116.179688 217.425781 121.28125 216.941406 122.851562 222.066406 Z M 115.660156 210.746094 C 115.527344 210.824219 115.058594 210.324219 114.433594 209.863281 C 115.183594 209.421875 115.644531 209.097656 116.121094 208.996094 C 116.324219 208.9375 116.632812 209.46875 116.898438 209.726562 C 116.511719 210.070312 116.128906 210.53125 115.660156 210.746094 Z M 103.203125 182.070312 C 104.40625 182.609375 105.542969 183.132812 106.746094 183.675781 C 106.355469 184.023438 105.894531 184.347656 105.222656 184.917969 C 104.355469 183.945312 103.59375 183.144531 102.832031 182.34375 C 103.007812 182.242188 103.179688 182.023438 103.203125 182.070312 Z M 112.773438 198.988281 C 112.695312 198.855469 113.378906 198.101562 113.546875 198.183594 C 114.367188 198.476562 115.148438 198.90625 115.953125 199.265625 C 115.332031 199.628906 114.785156 200.007812 113.859375 200.546875 C 113.453125 199.953125 112.96875 199.527344 112.773438 198.988281 Z M 130.054688 216.859375 C 129.6875 216.835938 129.296875 216.472656 128.539062 216.085938 C 129.316406 215.691406 129.703125 215.347656 130.074219 215.367188 C 130.398438 215.417969 130.679688 215.902344 130.976562 216.203125 C 130.691406 216.429688 130.398438 216.835938 130.054688 216.859375 Z M 134.050781 203.105469 C 131.863281 207.574219 126.417969 210.925781 121.371094 209.785156 C 115.441406 208.445312 115.695312 201.667969 119.671875 198.339844 C 121.523438 195.425781 124.964844 193.304688 128.328125 192.882812 C 134.441406 192.101562 136.378906 198.371094 134.050781 203.105469 Z M 144.257812 184.066406 C 144.0625 184.242188 143.867188 184.414062 143.605469 184.570312 C 141.695312 186.984375 138.816406 188.839844 135.71875 188.808594 C 131.984375 188.796875 128.976562 185.871094 128.46875 182.261719 C 128.277344 180.714844 128.574219 179.296875 129.292969 177.992188 C 129.097656 178.164062 128.878906 178.292969 128.65625 178.421875 C 128.523438 178.5 128.152344 178.0625 127.527344 177.601562 C 128.304688 177.207031 128.765625 176.878906 129.238281 176.78125 C 129.351562 176.773438 129.550781 177.011719 129.75 177.25 C 131.679688 174.46875 135.457031 172.621094 138.957031 172.535156 C 139.457031 172.480469 139.957031 172.425781 140.414062 172.394531 C 141.675781 172.429688 142.765625 172.980469 143.617188 173.726562 C 143.902344 173.914062 144.164062 174.058594 144.40625 174.273438 C 147.390625 176.855469 146.914062 181.515625 144.257812 184.066406 Z M 294.234375 214.636719 C 291.023438 210.351562 287.019531 205.105469 285.296875 202.144531 L 285.242188 202.058594 C 276.730469 191.210938 267.683594 179.140625 266.53125 177.265625 C 265.058594 175.042969 263.722656 173.160156 262.394531 171.386719 C 261.566406 170.273438 260.761719 169.199219 259.890625 168.109375 C 258.792969 166.738281 257.714844 165.292969 256.707031 163.867188 C 256.457031 163.539062 256.183594 163.167969 255.855469 162.707031 C 254.621094 161 252.804688 158.386719 250.84375 157.160156 C 248.984375 155.996094 246.820312 156.546875 245.820312 157.070312 L 245.777344 157.097656 L 245.734375 157.121094 C 243.691406 158.492188 241.578125 159.839844 239.578125 161.183594 C 235.792969 163.625 231.902344 166.191406 228.203125 168.878906 C 222.449219 173.121094 216.667969 177.617188 211.125 181.914062 C 209.53125 183.140625 208.023438 184.3125 206.472656 185.515625 L 205.207031 186.488281 C 198.417969 191.691406 191.386719 197.09375 185.03125 203.046875 C 184.941406 203.097656 184.878906 203.191406 184.773438 203.316406 C 184.320312 203.757812 183.886719 204.128906 183.433594 204.570312 C 183.089844 204.890625 182.785156 205.183594 182.464844 205.546875 C 182.269531 205.722656 182.144531 205.914062 181.949219 206.085938 C 175.960938 212.359375 171.90625 219.519531 177.960938 227.058594 C 178.1875 227.34375 178.296875 227.632812 178.292969 227.933594 L 178.28125 228.117188 L 178.359375 228.25 C 178.660156 228.664062 179.007812 229.054688 179.308594 229.472656 C 181.328125 232.023438 183.347656 234.578125 185.34375 237.085938 C 186.214844 238.175781 187.070312 239.335938 187.941406 240.425781 C 188.113281 240.621094 188.242188 240.839844 188.441406 241.078125 C 188.769531 241.539062 189.140625 241.976562 189.46875 242.433594 C 189.890625 242.957031 190.269531 243.507812 190.695312 244.03125 C 197.425781 252.835938 203.730469 261.414062 209.742188 270.105469 C 210.828125 271.664062 211.921875 273.335938 212.988281 274.964844 C 216.414062 280.128906 219.917969 285.429688 224.355469 289.589844 L 224.574219 289.761719 L 224.863281 289.652344 C 230.9375 287.886719 236.914062 286.058594 242.613281 282.738281 C 242.878906 282.582031 243.1875 282.402344 243.453125 282.25 C 248.898438 278.898438 278.976562 256.6875 293.785156 241.480469 C 293.160156 241.015625 292.679688 240.703125 292.222656 240.320312 C 293.28125 239.703125 294.230469 238.792969 295.339844 238.5625 C 295.609375 238.523438 295.960938 238.613281 296.273438 238.847656 C 299.867188 234.855469 302.082031 231.550781 302.066406 229.492188 L 302.082031 229.421875 L 302.058594 229.375 C 301.371094 226.875 300.484375 224.136719 298.757812 221.175781 C 298.339844 220.058594 296.460938 217.542969 294.234375 214.636719 Z M 239.390625 162.890625 C 239.683594 162.484375 240.144531 162.15625 240.535156 161.808594 C 240.785156 162.136719 241.289062 162.496094 241.191406 162.730469 C 241.078125 163.148438 240.664062 163.453125 240.199219 164.078125 C 239.796875 163.484375 239.328125 162.988281 239.390625 162.890625 Z M 208.660156 207.03125 C 209.242188 207.523438 209.632812 207.886719 210.023438 208.25 C 209.167969 208.511719 208.324219 208.886719 207.488281 209.078125 C 207.328125 209.113281 207.046875 208.625 206.800781 208.414062 C 207.371094 207.964844 207.960938 207.558594 208.660156 207.03125 Z M 200.792969 232.519531 C 199.074219 232.515625 197.5 231.949219 196.109375 230.984375 C 195.535156 230.609375 195.023438 230.136719 194.558594 229.640625 C 194.0625 229.097656 193.589844 228.488281 193.203125 227.824219 C 192.921875 227.339844 192.65625 226.785156 192.460938 226.246094 C 192.324219 225.910156 192.230469 225.550781 192.140625 225.1875 C 192.007812 224.554688 191.917969 223.898438 191.917969 223.1875 C 191.859375 222.984375 191.871094 222.800781 191.839844 222.640625 C 191.785156 222.140625 191.726562 221.640625 191.742188 221.15625 C 191.722656 220.515625 191.820312 219.871094 191.917969 219.222656 C 192.074219 218.476562 192.320312 217.683594 192.734375 216.96875 C 193.101562 216.28125 193.519531 215.679688 194.125 215.09375 C 197.351562 211.792969 202.3125 211.976562 205.886719 214.453125 C 208.488281 215.363281 210.683594 217.8125 211.40625 220.472656 C 212.753906 225.425781 210.121094 230.753906 205.128906 232.242188 C 203.710938 232.652344 202.34375 232.742188 201.046875 232.546875 C 200.976562 232.53125 200.90625 232.511719 200.792969 232.519531 Z M 243.882812 262.578125 C 243.882812 263.289062 243.8125 263.980469 243.699219 264.699219 C 243.648438 266.445312 243.214844 268.238281 242.328125 269.761719 C 239.574219 274.679688 233.453125 276.058594 228.574219 273.574219 C 225.515625 271.984375 223.027344 268.933594 222.234375 265.546875 C 221.238281 261.097656 223.132812 257.03125 226.742188 254.394531 C 229.699219 252.257812 233.855469 251.667969 237.238281 253.011719 C 241.191406 254.613281 243.769531 258.324219 243.882812 262.578125 Z M 216.929688 211.269531 C 216.632812 211.976562 216.265625 212.664062 215.898438 213.351562 C 215.550781 212.960938 215.273438 212.589844 214.703125 211.917969 C 215.378906 211.347656 215.855469 210.949219 216.40625 210.570312 C 216.40625 210.570312 217.011719 211.105469 216.929688 211.269531 Z M 246.960938 223.898438 C 248.3125 228.855469 245.675781 234.179688 240.683594 235.667969 C 239.265625 236.082031 237.898438 236.167969 236.601562 235.976562 C 236.53125 235.957031 236.445312 236.011719 236.375 235.992188 C 232.199219 235.9375 228.707031 232.585938 227.792969 228.679688 C 227.660156 228.046875 227.570312 227.386719 227.570312 226.675781 C 227.019531 223.800781 227.539062 220.835938 229.707031 218.566406 C 232.929688 215.265625 237.894531 215.449219 241.464844 217.925781 C 244.042969 218.792969 246.238281 221.242188 246.960938 223.898438 Z M 234.484375 188.484375 C 234.351562 187.851562 234.261719 187.195312 234.265625 186.484375 C 233.710938 183.609375 234.230469 180.640625 236.398438 178.371094 C 239.625 175.070312 244.585938 175.257812 248.160156 177.730469 C 250.761719 178.640625 252.957031 181.089844 253.679688 183.75 C 255.03125 188.707031 252.394531 194.03125 247.402344 195.519531 C 245.984375 195.929688 244.617188 196.019531 243.320312 195.828125 C 243.25 195.808594 243.164062 195.859375 243.09375 195.84375 C 238.847656 195.769531 235.355469 192.417969 234.484375 188.484375 Z M 271.628906 239.003906 C 267.195312 237.796875 264.296875 234.042969 263.304688 229.707031 C 262.105469 224.601562 264.4375 219.867188 269.433594 218.082031 C 271.042969 217.496094 272.941406 217.398438 274.742188 217.648438 C 277.4375 217.5 280.171875 218.332031 282.328125 220.511719 C 284.019531 222.191406 285.105469 224.457031 285.53125 226.8125 C 285.539062 226.929688 285.589844 227.015625 285.570312 227.085938 C 286 229.855469 285.457031 232.777344 283.769531 235.0625 C 280.980469 238.703125 276.058594 240.210938 271.628906 239.003906 Z M 288.652344 237.546875 C 288.402344 237.632812 287.988281 237.222656 287.179688 236.746094 C 288.632812 236.195312 289.566406 235.769531 290.535156 235.5 C 290.738281 235.441406 291.089844 235.945312 291.359375 236.203125 C 290.449219 236.675781 289.613281 237.164062 288.652344 237.546875 Z M 290.167969 232.636719 C 290.226562 232.839844 289.722656 233.191406 289.367188 233.695312 C 288.941406 233.171875 288.4375 232.816406 288.441406 232.519531 C 288.488281 232.195312 288.949219 231.867188 289.25 231.574219 C 289.570312 231.917969 289.980469 232.214844 290.167969 232.636719 Z M 290.167969 232.636719 " fill-opacity="1" fill-rule="nonzero"/></g></g></g></g><g clip-path="url(#ebe1ff12d2)"><g clip-path="url(#1126c0c107)"><g clip-path="url(#274e986cbd)"><g clip-path="url(#e461d7eda7)"><path fill="#1bbbf4" d="M 131.105469 264.855469 C 127.992188 259.917969 124.773438 254.808594 122.324219 249.488281 L 122.246094 249.355469 L 122.082031 249.273438 C 118.257812 247.179688 114.445312 245.613281 111.152344 244.335938 L 111.082031 244.316406 L 111.015625 244.300781 C 106.804688 243.675781 102.902344 242.160156 100.375 240.96875 L 100.304688 240.953125 L 100.234375 240.933594 C 91.960938 239.835938 83.425781 237.886719 74.855469 235.066406 L 74.714844 235.027344 C 69.558594 234.304688 64.460938 233.78125 59.582031 233.429688 C 58.039062 233.324219 56.460938 233.355469 54.925781 233.363281 L 54.898438 233.316406 C 53.25 233.332031 51.601562 233.347656 49.945312 233.246094 L 49.761719 233.234375 L 49.582031 233.335938 C 48.246094 234.292969 47.480469 235.214844 47.066406 236.226562 L 46.964844 236.460938 L 47.09375 236.683594 C 48.234375 238.328125 49.226562 240.238281 50.066406 241.878906 C 50.5625 242.832031 51.160156 243.964844 51.753906 244.980469 C 54.148438 249.089844 56.441406 253.023438 58.734375 256.953125 C 59.480469 258.234375 60.273438 259.492188 61.019531 260.773438 L 61.992188 262.339844 C 65.015625 267.324219 68.117188 272.441406 70.703125 277.6875 L 70.726562 277.730469 L 70.753906 277.773438 C 72.597656 280.429688 74.371094 282.355469 76.371094 283.855469 C 77.960938 285.058594 79.703125 285.820312 81.117188 286.414062 L 81.144531 286.460938 L 81.210938 286.476562 C 86.773438 287.796875 92.425781 289.472656 97.425781 290.941406 L 97.84375 291.050781 C 102.144531 292.335938 106.558594 293.609375 110.867188 294.707031 C 115.246094 295.828125 119.890625 296.789062 124.003906 297.648438 C 129.53125 298.808594 135.175781 299.957031 140.636719 301.511719 L 140.707031 301.527344 L 140.960938 301.558594 C 141.398438 301.597656 141.765625 301.621094 142.132812 301.644531 C 142.433594 301.648438 142.800781 301.671875 143.195312 301.738281 C 144.875 301.878906 146.578125 301.957031 147.46875 301.554688 C 147.601562 301.476562 147.734375 301.398438 147.820312 301.347656 C 149.410156 300.421875 149.273438 298.964844 148.929688 296.855469 C 148.882812 296.46875 148.808594 296.035156 148.734375 295.605469 C 148.734375 295.605469 148.710938 295.5625 148.726562 295.492188 L 148.746094 295.421875 C 148.746094 295.421875 148.660156 295.175781 148.636719 295.128906 L 148.582031 295.042969 C 147.03125 292.988281 145.789062 290.753906 144.640625 288.578125 C 141.339844 282.511719 138.867188 277.972656 136.570312 273.925781 C 134.9375 271.027344 133.097656 268.074219 131.292969 265.277344 Z M 69.101562 249.253906 C 69.058594 249.691406 68.949219 250.113281 68.699219 250.496094 C 67.699219 252.027344 65.332031 251.925781 63.828125 251.378906 C 63.664062 251.296875 63.5 251.21875 63.289062 251.160156 C 63.078125 251.105469 62.9375 251.070312 62.773438 250.988281 C 59.28125 249.769531 52.363281 244.503906 54.832031 240.105469 C 57.730469 234.925781 64.230469 239.070312 66.535156 242.519531 C 66.5625 242.5625 66.5625 242.5625 66.585938 242.609375 C 66.960938 243.042969 67.339844 243.589844 67.699219 244.210938 C 69.027344 245.980469 69.765625 247.859375 69.101562 249.253906 Z M 94.671875 275.554688 C 94.941406 275.8125 95.183594 276.027344 95.46875 276.214844 C 95.183594 276.027344 94.914062 275.769531 94.671875 275.554688 Z M 105.199219 273.207031 C 106.304688 276.527344 104.695312 280.367188 100.65625 279.527344 C 99.703125 279.3125 98.058594 278.316406 96.292969 276.917969 C 96.433594 276.953125 96.574219 276.992188 96.667969 277.054688 C 96.980469 276.164062 97.175781 275.691406 97.351562 275.175781 C 96.417969 275.304688 95.507812 275.363281 94.574219 275.492188 C 91.316406 272.539062 88.222656 268.65625 89.078125 266.265625 C 89.121094 265.527344 89.421875 264.820312 90.207031 264.242188 C 93.003906 262.136719 97.449219 265.292969 99.582031 267.125 C 102.136719 268.359375 104.335938 270.511719 105.199219 273.207031 Z M 140.242188 290.074219 C 140.480469 290.886719 140.460938 291.667969 140.234375 292.390625 C 140.035156 293.574219 139.300781 294.652344 137.828125 295.273438 C 135.199219 296.449219 132.496094 294.652344 130.316406 292.84375 C 128.320312 291.757812 126.570312 290.171875 125.582031 288.378906 C 125.351562 287.980469 125.261719 287.621094 125.167969 287.261719 C 125.167969 287.261719 125.140625 287.214844 125.140625 287.214844 C 125.109375 287.058594 125.050781 286.855469 125.085938 286.714844 C 124.375 284.171875 125.730469 281.425781 128.785156 281.480469 C 131.464844 281.515625 134.277344 283.191406 136.4375 285.070312 C 138.246094 286.445312 139.6875 288.210938 140.242188 290.074219 Z M 325.875 228.101562 L 325.367188 227.332031 L 325.265625 227.15625 C 325 226.601562 323.628906 224.554688 322.175781 222.265625 C 322.964844 226.660156 315.261719 220.554688 312.582031 214.539062 C 309.316406 207.207031 312.433594 209 315.765625 212.386719 L 315.507812 211.945312 L 315.457031 211.855469 C 315.40625 211.765625 315.355469 211.679688 315.304688 211.589844 C 315.226562 211.457031 315.175781 211.371094 315.078125 211.308594 C 313.246094 208.46875 311.207031 205.273438 309.015625 201.816406 C 308.84375 202.035156 308.585938 202.304688 308.328125 202.570312 C 307.804688 201.871094 307.5 201.457031 307.199219 201.039062 C 307.484375 200.816406 307.808594 200.566406 308.09375 200.339844 C 305.058594 195.539062 301.746094 190.363281 298.476562 185.164062 C 297.429688 183.46875 296.425781 181.742188 295.34375 179.886719 C 293.875 177.371094 292.398438 174.738281 290.753906 172.320312 C 289.617188 170.675781 287.976562 169.382812 285.96875 168.480469 C 284.886719 168.042969 283.90625 167.375 282.832031 166.753906 C 282.355469 166.441406 281.875 166.128906 281.355469 165.839844 C 278.253906 163.976562 275.074219 162.277344 271.953125 160.78125 C 271.222656 160.441406 270.464844 160.050781 269.707031 159.664062 C 265.632812 157.65625 261.015625 155.316406 256.421875 154.441406 L 255.355469 154.238281 L 255.851562 155.191406 C 256.476562 156.363281 257.078125 157.496094 257.675781 158.625 C 258.695312 160.578125 259.714844 162.527344 260.824219 164.429688 C 262.523438 167.34375 264.335938 170.253906 265.824219 172.703125 C 267.132812 174.542969 268.355469 176.4375 269.476562 178.152344 C 270.894531 180.285156 275.195312 185.832031 280.210938 192.203125 C 282.03125 194.515625 283.90625 196.917969 285.777344 199.316406 L 285.828125 199.40625 L 285.925781 199.46875 C 285.949219 199.511719 286.019531 199.53125 286.019531 199.53125 C 287.710938 201.210938 299.335938 214.859375 300.890625 217.328125 L 300.945312 217.414062 C 301.699219 218.101562 302.363281 218.835938 303.03125 219.574219 C 303.894531 220.550781 304.828125 221.542969 305.84375 222.371094 C 307.15625 223.503906 308.566406 224.398438 309.976562 225.292969 C 311.289062 226.125 312.628906 227.003906 313.792969 227.984375 C 313.816406 228.027344 313.886719 228.046875 313.914062 228.089844 L 313.992188 228.222656 C 313.992188 228.222656 315.074219 228.65625 315.542969 228.855469 C 315.753906 228.910156 315.917969 228.992188 316.15625 229.09375 C 316.199219 229.066406 316.242188 229.039062 316.3125 229.058594 C 316.472656 229.027344 316.6875 229.195312 316.859375 229.390625 C 317.542969 229.644531 318.25 229.945312 318.929688 230.199219 C 319.777344 230.535156 320.667969 230.84375 321.488281 231.132812 L 321.628906 231.171875 C 321.765625 231.207031 321.882812 231.199219 322.003906 231.308594 C 322.027344 231.351562 322.097656 231.371094 322.097656 231.371094 L 322.125 231.414062 L 322.21875 231.476562 C 323.984375 232.167969 326.078125 233.015625 328.097656 234.148438 C 328.167969 234.167969 328.195312 234.210938 328.195312 234.210938 L 328.957031 233.589844 C 328.328125 231.703125 327.089844 229.882812 325.875 228.101562 Z M 281.214844 180.425781 C 281.828125 185.636719 275.671875 181.171875 274.246094 179.636719 C 272.296875 177.515625 270.757812 174.976562 269.40625 172.449219 C 268.546875 170.878906 267.167969 168.308594 267.804688 166.457031 C 268.359375 164.769531 269.5 164.996094 270.75 165.925781 C 270.972656 165.796875 271.3125 165.773438 271.554688 165.988281 C 274.109375 167.933594 275.945312 170.472656 277.5625 173.144531 C 278.886719 175.210938 280.941406 177.921875 281.214844 180.425781 Z M 309.457031 214.050781 C 314.851562 225.234375 302.507812 217.863281 299.246094 209.9375 C 295.773438 201.542969 299.84375 203.550781 303.9375 207.320312 C 303.644531 208.144531 303.328125 208.917969 303.039062 209.742188 C 304.015625 209.585938 304.945312 209.457031 305.921875 209.304688 C 307.476562 211.058594 308.875 212.851562 309.457031 214.050781 Z M 303.917969 207.390625 C 304.214844 207.695312 304.550781 207.96875 304.871094 208.316406 C 304.550781 207.96875 304.257812 207.667969 303.917969 207.390625 Z M 293.925781 185.984375 C 292.070312 188.488281 289.09375 184.597656 287.996094 183.222656 C 285.65625 180.324219 282.867188 176.5625 282.757812 172.71875 C 282.761719 172.421875 283.003906 172.222656 283.300781 172.226562 C 286.71875 171.59375 289.683594 175.253906 291.554688 177.65625 C 292.933594 179.515625 295.734375 183.507812 293.925781 185.984375 Z M 69.84375 191.746094 C 69.835938 191.632812 69.828125 191.519531 69.847656 191.449219 C 70.015625 191.230469 70.230469 190.988281 70.402344 190.773438 C 70.445312 190.746094 70.445312 190.746094 70.464844 190.675781 C 70.632812 190.457031 70.871094 190.261719 71.085938 190.015625 C 71.277344 190.144531 71.398438 190.25 71.40625 190.363281 C 71.371094 190.914062 70.925781 191.472656 70.570312 191.976562 C 70.4375 192.054688 69.851562 191.859375 69.84375 191.746094 Z M 138.453125 180.40625 C 138.113281 181.140625 137.796875 181.914062 137.347656 182.769531 C 136.699219 182.671875 136.261719 182.632812 135.867188 182.566406 C 136.140625 181.816406 136.246094 180.984375 136.734375 180.402344 C 136.96875 180.089844 137.859375 180.398438 138.453125 180.40625 Z M 134.925781 290.394531 C 134.789062 290.769531 134.730469 291.277344 134.464844 291.433594 C 134.15625 291.613281 133.621094 291.507812 132.753906 291.542969 C 133.210938 290.800781 133.382812 290.285156 133.71875 290.152344 C 134.054688 290.015625 134.503906 290.285156 134.925781 290.394531 Z M 137.277344 287.425781 C 137.113281 288.054688 136.972656 288.726562 136.710938 289.292969 C 136.648438 289.390625 136.019531 289.222656 134.425781 289.027344 C 135.078125 288.117188 135.402344 287.453125 135.921875 287.03125 C 136.144531 286.902344 136.789062 287.296875 137.277344 287.425781 Z M 279.289062 223.113281 C 278.632812 222.902344 278.054688 222.824219 277.902344 222.558594 C 277.746094 222.292969 278.007812 221.726562 278.117188 221.308594 C 278.5625 221.460938 279.117188 221.496094 279.453125 221.773438 C 279.601562 221.921875 279.339844 222.488281 279.289062 223.113281 Z M 282.316406 224.246094 C 281.800781 225.082031 281.304688 225.960938 280.714844 226.777344 C 280.589844 226.96875 279.988281 226.847656 279.050781 226.863281 C 279.976562 225.613281 280.566406 224.792969 281.25 224.039062 C 281.375 223.847656 281.96875 224.15625 282.316406 224.246094 Z M 266.304688 224.996094 C 266.78125 225.3125 267.304688 225.597656 268.617188 226.429688 C 268.359375 226.699219 268.027344 227.25 267.578125 227.390625 C 267.332031 227.476562 266.601562 227.132812 266.492188 226.84375 C 266.296875 226.304688 266.367188 225.613281 266.304688 224.996094 Z M 285.503906 226.769531 C 285.511719 226.882812 285.5625 226.972656 285.546875 227.042969 C 285.546875 227.042969 285.570312 227.085938 285.527344 227.113281 C 285.457031 227.09375 285.386719 227.074219 285.273438 227.082031 C 285.40625 227.003906 285.441406 226.867188 285.503906 226.769531 Z M 301.261719 205.269531 C 301.195312 205.664062 301.15625 206.101562 301.058594 206.75 C 300.472656 206.558594 299.824219 206.460938 299.792969 206.304688 C 299.699219 205.945312 299.890625 205.359375 300.132812 205.160156 C 300.371094 204.960938 300.867188 205.203125 301.261719 205.269531 Z M 302.238281 213.34375 C 302.21875 213.710938 302.175781 214.152344 302.109375 214.542969 C 301.738281 214.109375 301.386719 213.605469 301.058594 213.144531 C 301.101562 213.121094 301.101562 213.121094 301.121094 213.050781 C 301.226562 212.929688 302.257812 213.273438 302.238281 213.34375 Z M 302.238281 213.34375 " fill-opacity="1" fill-rule="nonzero"/></g></g></g></g><g clip-path="url(#c7f4c3d4ef)"><g clip-path="url(#11424e28f9)"><g clip-path="url(#50195e9c68)"><g clip-path="url(#ef63d6cfd8)"><path fill="#7a49a9" d="M 166.539062 179.546875 L 166.488281 179.457031 L 166.4375 179.371094 C 165.742188 178.589844 164.929688 177.703125 164.097656 176.882812 L 163.925781 176.6875 L 163.652344 176.730469 C 162.949219 176.84375 162.191406 177.167969 161.351562 177.65625 C 160.515625 178.144531 159.859375 178.644531 159.558594 178.941406 L 159.46875 178.992188 L 159.40625 179.085938 C 158.113281 182.148438 156.402344 185.101562 154.753906 187.957031 L 154.402344 188.574219 C 154.117188 189.097656 153.847656 189.550781 153.558594 190.074219 C 150.742188 195.089844 147.601562 200.058594 144.613281 204.878906 L 144.074219 205.785156 C 142.5 208.359375 140.855469 210.917969 139.277344 213.496094 L 137.183594 216.90625 C 133.78125 222.441406 130.917969 227.070312 128.007812 231.726562 L 127.964844 231.753906 L 127.722656 232.25 C 127.578125 232.511719 127.480469 232.746094 127.363281 233.050781 L 127.34375 233.121094 C 126.902344 234.089844 126.476562 234.988281 126.125 235.90625 L 126.085938 236.046875 C 126.0625 236.710938 125.964844 237.359375 125.871094 238.007812 L 125.824219 238.332031 C 125.605469 240.292969 125.378906 242.140625 125.59375 244.03125 C 125.800781 245.804688 126.453125 247.433594 127.082031 249.023438 L 127.246094 249.402344 L 127.269531 249.445312 C 130.570312 254.09375 133.351562 259.164062 136.007812 264.128906 C 137.148438 266.1875 138.089844 268.003906 139.144531 269.816406 C 143.617188 277.691406 147.773438 285.628906 151.25 292.304688 L 151.273438 292.347656 L 151.300781 292.394531 C 151.699219 292.871094 152.03125 293.445312 152.253906 294.027344 L 152.332031 294.160156 L 152.496094 294.242188 C 153.59375 294.90625 155.027344 295.132812 156.425781 294.792969 C 157.261719 294.601562 157.96875 294.1875 158.789062 293.769531 L 158.835938 293.742188 C 159.496094 293.359375 160.070312 293.023438 160.765625 292.792969 L 160.855469 292.742188 L 160.917969 292.648438 C 161.710938 291.773438 162.476562 290.851562 163.234375 289.816406 C 164.128906 288.40625 164.941406 287.164062 165.800781 285.894531 C 167.429688 283.109375 168.90625 280.058594 170.347656 277.144531 L 170.445312 276.910156 C 171.15625 275.488281 171.921875 273.859375 172.652344 272.367188 C 173.730469 270.257812 174.757812 268.0625 175.792969 265.980469 L 176.015625 265.550781 C 178.5625 260.277344 181.167969 254.792969 184.332031 249.871094 L 184.371094 249.730469 C 184.851562 248.324219 185.398438 246.820312 185.898438 245.34375 C 182.136719 239.605469 178.542969 233.945312 175.035156 228.234375 C 174.984375 228.144531 174.90625 228.011719 174.898438 227.898438 L 174.867188 227.738281 L 174.746094 227.632812 C 171.738281 224.707031 170.332031 221.382812 170.464844 217.753906 C 170.707031 212.285156 174.585938 206.648438 179.375 201.667969 C 178.78125 200.648438 178.214844 199.679688 177.648438 198.707031 C 176.464844 196.671875 175.164062 194.648438 173.789062 192.488281 C 171.304688 188.433594 168.457031 184.054688 166.539062 179.546875 Z M 134.222656 249.597656 C 131.539062 248.851562 131.019531 245.722656 131.09375 243.3125 C 131.230469 239.382812 134.316406 232.195312 139.464844 233.8125 C 142.058594 234.609375 142.992188 237.734375 142.832031 240.199219 C 142.746094 241.371094 142.457031 242.605469 142.03125 243.800781 C 141.804688 244.527344 141.53125 245.277344 141.179688 245.894531 C 139.835938 248.160156 137.046875 250.378906 134.222656 249.597656 Z M 163.386719 272.617188 C 164.445312 275.554688 164.496094 279.195312 162.496094 281.546875 C 161.683594 282.492188 160.6875 283.011719 159.6875 283.125 C 158.601562 283.695312 157.398438 283.867188 156.140625 283.234375 C 154.15625 282.261719 153.417969 280.085938 153.285156 278.03125 C 153.128906 275.933594 153.632812 273.449219 154.761719 271.429688 C 155.277344 270.179688 156.082031 269.121094 157.121094 268.574219 C 157.300781 268.46875 157.457031 268.4375 157.640625 268.449219 C 157.6875 268.421875 157.730469 268.398438 157.773438 268.371094 C 157.863281 268.320312 157.90625 268.292969 158.019531 268.285156 C 158.019531 268.285156 158.066406 268.261719 158.066406 268.261719 C 159.476562 267.734375 161.070312 267.929688 162.15625 269.191406 C 162.996094 270.121094 163.304688 271.363281 163.386719 272.617188 Z M 167.300781 236.589844 C 166.625 238.878906 165.148438 241.21875 163 242.414062 C 160.5 243.808594 157.921875 242.53125 157.113281 239.925781 C 156.597656 238.332031 156.496094 236.433594 156.792969 234.605469 C 156.652344 231.726562 157.558594 228.710938 159.582031 227.414062 C 161.917969 225.933594 164.914062 226.910156 166.386719 229.132812 C 167.761719 231.289062 167.972656 234.1875 167.300781 236.589844 Z M 172.351562 237.433594 C 171.648438 237.550781 170.765625 236.644531 168.988281 235.726562 C 171.105469 235.199219 172.207031 234.855469 173.324219 234.738281 C 173.777344 234.707031 174.253906 235.320312 174.730469 235.632812 C 173.96875 236.253906 173.257812 237.261719 172.351562 237.433594 Z M 167.648438 189.675781 C 168.65625 193.230469 167.117188 197.800781 164.558594 200.414062 C 163.09375 201.863281 160.96875 202.984375 158.980469 202.011719 C 157.277344 201.226562 156.523438 199.121094 156.457031 197.382812 C 156.441406 196.03125 156.652344 194.664062 157.183594 193.347656 C 157.527344 191.195312 158.351562 189.054688 159.378906 187.570312 C 162.066406 183.753906 166.496094 185.667969 167.648438 189.675781 Z M 329.855469 237.976562 C 328.789062 237.769531 327.726562 237.265625 326.828125 236.84375 C 325.738281 236.292969 324.667969 235.675781 323.398438 234.816406 L 323.328125 234.796875 L 323.257812 234.78125 C 322.324219 234.496094 321.527344 234.25 320.707031 233.957031 L 320.636719 233.9375 L 320.566406 233.921875 C 320.269531 233.917969 320.015625 233.886719 319.691406 233.839844 C 321.132812 234.894531 322.453125 235.839844 323.75 236.742188 C 323.441406 236.921875 323.078125 237.3125 322.867188 237.257812 C 320.730469 236.429688 318.609375 235.535156 316.445312 234.664062 C 316.878906 234.292969 317.339844 233.96875 317.773438 233.59375 C 317.054688 233.480469 316.382812 233.339844 315.636719 233.183594 L 315.5 233.144531 L 315.367188 233.222656 C 315.164062 233.28125 314.960938 233.339844 314.777344 233.328125 C 313.832031 233.230469 312.871094 232.902344 311.824219 232.328125 L 311.730469 232.261719 L 311.617188 232.269531 C 310.023438 232.074219 308.667969 232.390625 307.210938 233.242188 C 306.148438 233.859375 305.085938 234.773438 304.242188 235.5625 C 304.199219 235.589844 304.15625 235.613281 304.066406 235.664062 C 304.023438 235.691406 303.976562 235.71875 303.933594 235.742188 L 303.730469 235.800781 L 303.648438 235.96875 C 301.53125 239.746094 297.589844 242.933594 294.4375 245.542969 C 287.382812 251.3125 280.976562 256.464844 274.347656 261.335938 C 273.1875 262.191406 272.144531 263.035156 271.210938 263.875 C 266.398438 268.105469 258.460938 274.386719 255.058594 277.082031 L 254.074219 277.832031 L 254.03125 277.855469 C 250.195312 282.34375 245.703125 286.917969 239.5 292.722656 C 238.921875 293.355469 238.394531 294.078125 238.226562 294.707031 C 238.050781 295.519531 238.367188 296.164062 239.203125 296.683594 L 239.34375 296.722656 C 243.0625 297.515625 246.773438 297.894531 249.953125 298.171875 C 258.988281 298.945312 266.546875 295.367188 272.730469 291.761719 C 273.261719 291.453125 273.835938 291.121094 274.367188 290.808594 C 281.292969 286.652344 288.617188 281.851562 296.730469 276.175781 C 299.84375 274.003906 322.292969 255.054688 327.015625 247.921875 C 327.265625 247.542969 327.496094 247.226562 327.683594 246.941406 L 327.726562 246.914062 L 328.125 245.972656 C 329.136719 243.546875 330.167969 241.050781 330.242188 238.640625 L 330.238281 238.226562 Z M 247.304688 293.324219 C 246.160156 293.695312 243.238281 294.570312 242.269531 293.417969 C 241.527344 292.546875 242.972656 291.171875 243.53125 290.609375 C 245.042969 289.136719 246.820312 287.921875 248.554688 286.734375 C 249.5625 286.027344 250.597656 285.367188 251.699219 284.722656 C 252.71875 284.128906 261.074219 278.667969 264.730469 278.546875 C 265.898438 278.519531 265.125 280.035156 264.785156 280.46875 C 264.128906 281.265625 263.347656 281.960938 262.59375 282.695312 C 260.824219 284.433594 258.910156 286.023438 256.972656 287.570312 C 254.046875 289.867188 250.898438 292.175781 247.304688 293.324219 Z M 258.144531 292.628906 C 257.203125 292.941406 254.773438 293.648438 253.976562 292.691406 C 253.382812 291.972656 254.546875 290.820312 255.042969 290.351562 C 256.292969 289.148438 257.761719 288.117188 259.1875 287.109375 C 260.046875 286.546875 260.902344 285.988281 261.785156 285.472656 C 262.625 284.984375 269.574219 280.460938 272.636719 280.332031 C 273.621094 280.292969 272.945312 281.574219 272.671875 281.910156 C 272.117188 282.589844 271.445312 283.160156 270.839844 283.746094 C 269.375 285.195312 267.789062 286.535156 266.152344 287.785156 C 263.777344 289.703125 261.128906 291.660156 258.144531 292.628906 Z M 281.855469 282.539062 C 281.277344 283.171875 280.671875 283.757812 280.070312 284.347656 C 278.601562 285.792969 277.0625 287.109375 275.421875 288.359375 C 272.980469 290.257812 270.445312 292.207031 267.433594 293.132812 C 266.492188 293.445312 264.0625 294.152344 263.292969 293.238281 C 262.699219 292.519531 263.863281 291.367188 264.3125 290.925781 C 265.566406 289.722656 267.035156 288.691406 268.441406 287.753906 C 269.296875 287.191406 270.15625 286.632812 271.039062 286.117188 C 271.878906 285.628906 278.785156 281.128906 281.777344 280.984375 C 282.757812 280.945312 282.128906 282.199219 281.855469 282.539062 Z M 313.167969 236.457031 C 313.371094 236.398438 314.042969 237.25 314 237.273438 C 313.472656 237.996094 312.894531 238.628906 312.191406 239.453125 C 311.183594 238.738281 310.417969 238.238281 309.722656 237.753906 C 310.886719 237.3125 311.996094 236.785156 313.167969 236.457031 Z M 286.558594 261.976562 C 285.414062 262.347656 282.488281 263.222656 281.523438 262.070312 C 280.777344 261.199219 282.226562 259.824219 282.785156 259.261719 C 284.292969 257.789062 286.070312 256.574219 287.804688 255.386719 C 288.8125 254.679688 289.847656 254.019531 290.953125 253.375 C 291.96875 252.78125 300.324219 247.320312 303.984375 247.199219 C 305.148438 247.171875 304.378906 248.6875 304.039062 249.121094 C 303.378906 249.917969 302.597656 250.609375 301.84375 251.347656 C 300.078125 253.085938 298.164062 254.675781 296.222656 256.222656 C 293.300781 258.519531 290.175781 260.875 286.558594 261.976562 Z M 297.398438 261.28125 C 296.453125 261.59375 294.023438 262.300781 293.230469 261.34375 C 292.632812 260.625 293.796875 259.472656 294.292969 259.003906 C 295.546875 257.800781 297.015625 256.769531 298.4375 255.757812 C 299.296875 255.199219 300.15625 254.640625 301.039062 254.125 C 301.878906 253.636719 308.828125 249.113281 311.890625 248.984375 C 312.871094 248.945312 312.199219 250.226562 311.921875 250.5625 C 311.371094 251.242188 310.695312 251.8125 310.09375 252.398438 C 308.628906 253.847656 307.042969 255.1875 305.402344 256.4375 C 303.054688 258.398438 300.40625 260.355469 297.398438 261.28125 Z M 321.132812 251.234375 C 320.554688 251.867188 319.949219 252.457031 319.347656 253.042969 C 317.882812 254.492188 316.339844 255.804688 314.699219 257.054688 C 312.257812 258.953125 309.722656 260.902344 306.710938 261.832031 C 305.769531 262.144531 303.339844 262.847656 302.570312 261.933594 C 301.976562 261.21875 303.140625 260.066406 303.589844 259.625 C 304.84375 258.421875 306.3125 257.386719 307.71875 256.449219 C 308.574219 255.890625 309.433594 255.332031 310.316406 254.816406 C 311.15625 254.324219 318.0625 249.828125 321.054688 249.679688 C 322.082031 249.613281 321.40625 250.894531 321.132812 251.234375 Z M 136.390625 245.195312 C 136.492188 245.667969 136.363281 246.160156 136.375 246.683594 C 135.980469 246.617188 135.628906 246.527344 134.984375 246.429688 C 135.238281 245.75 135.390625 245.304688 135.546875 244.859375 C 135.824219 244.933594 136.359375 245.035156 136.390625 245.195312 Z M 136.972656 242.132812 C 136.578125 242.363281 136 242.285156 134.972656 242.351562 C 135.441406 241.429688 135.5625 240.824219 135.933594 240.546875 C 136.199219 240.394531 136.921875 240.621094 137.171875 240.949219 C 137.371094 241.1875 137.195312 242.003906 136.972656 242.132812 Z M 136.972656 242.132812 " fill-opacity="1" fill-rule="nonzero"/></g></g></g></g><g fill="#ffffff" fill-opacity="1"><g transform="translate(387.199281, 256.498365)"><g><path d="M 122.171875 0 L 83.953125 0 L 40.671875 -51.828125 L 40.671875 0 L 8.546875 0 L 8.546875 -76.59375 L 46.75 -76.59375 L 90.046875 -25.03125 L 90.046875 -76.59375 L 122.171875 -76.59375 Z M 122.171875 0 "/></g></g></g><g fill="#ffffff" fill-opacity="1"><g transform="translate(517.893079, 256.498365)"><g><path d="M 100.765625 0 L 8.546875 0 L 8.546875 -76.59375 L 96.5625 -76.59375 L 96.5625 -57.640625 L 40.671875 -57.640625 L 40.671875 -45.640625 L 87.90625 -45.640625 L 87.90625 -30.90625 L 40.671875 -30.90625 L 40.671875 -18.953125 L 100.765625 -18.953125 Z M 100.765625 0 "/></g></g></g><g fill="#ffffff" fill-opacity="1"><g transform="translate(622.91774, 256.498365)"><g><path d="M 110.375 0 L 77.828125 0 L 55.609375 -23.484375 L 33.359375 0 L 0.796875 0 L 40.671875 -39.171875 L 0.796875 -76.546875 L 33.359375 -76.546875 L 55.609375 -54.609375 L 77.828125 -76.546875 L 110.375 -76.546875 L 70.515625 -39.171875 Z M 110.375 0 "/></g></g></g><g fill="#ffffff" fill-opacity="1"><g transform="translate(734.079513, 256.498365)"><g><path d="M 65.328125 0 L 33.203125 0 L 33.203125 -57.640625 L 3.203125 -57.640625 L 3.203125 -76.59375 L 95.328125 -76.59375 L 95.328125 -57.640625 L 65.328125 -57.640625 Z M 65.328125 0 "/></g></g></g></svg>